<svg xmlns="http://www.w3.org/2000/svg" xmlns:xlink="http://www.w3.org/1999/xlink" width="103" height="103" viewBox="0 0 103 103">
  <defs>
    <filter id="Trazado_982547" x="0" y="0" width="103" height="103" filterUnits="userSpaceOnUse">
      <feOffset dy="3" input="SourceAlpha"/>
      <feGaussianBlur stdDeviation="3" result="blur"/>
      <feFlood flood-opacity="0.161"/>
      <feComposite operator="in" in2="blur"/>
      <feComposite in="SourceGraphic"/>
    </filter>
  </defs>
  <g id="Grupo_1203619" data-name="Grupo 1203619" transform="translate(-1129 -1312)">
    <g id="Grupo_1203558" data-name="Grupo 1203558" transform="translate(1138 1318)">
      <g id="Grupo_1202212" data-name="Grupo 1202212">
        <g id="Grupo_1174813" data-name="Grupo 1174813">
          <g id="Grupo_1201680" data-name="Grupo 1201680">
            <g id="Grupo_1201330" data-name="Grupo 1201330">
              <g id="Grupo_1172010" data-name="Grupo 1172010">
                <g id="Grupo_1171046" data-name="Grupo 1171046">
                  <g id="Grupo_1148525" data-name="Grupo 1148525">
                    <g transform="matrix(1, 0, 0, 1, -9, -6)" filter="url(#Trazado_982547)">
                      <g id="Trazado_982547-2" data-name="Trazado 982547" transform="translate(9 6)" fill="#f2f7e5">
                        <path d="M 42.5 83.5 C 36.96437835693359 83.5 31.59512901306152 82.41617584228516 26.54141235351562 80.27863311767578 C 21.65934181213379 78.21369171142578 17.27447128295898 75.25723266601562 13.50862312316895 71.49137878417969 C 9.742764472961426 67.72553253173828 6.786305904388428 63.34066009521484 4.721364498138428 58.45858764648438 C 2.583823442459106 53.40486907958984 1.5 48.03562164306641 1.5 42.5 C 1.5 36.96437835693359 2.583823442459106 31.59512901306152 4.721364498138428 26.54141235351562 C 6.786305904388428 21.65934181213379 9.742764472961426 17.27448272705078 13.50862312316895 13.50862312316895 C 17.27447128295898 9.742776870727539 21.65934181213379 6.786305904388428 26.54141235351562 4.721364498138428 C 31.59512901306152 2.583823442459106 36.96437835693359 1.5 42.5 1.5 C 48.03562164306641 1.5 53.40486907958984 2.583823442459106 58.45858764648438 4.721364498138428 C 63.34066009521484 6.786305904388428 67.72553253173828 9.742776870727539 71.49137878417969 13.50862312316895 C 75.25723266601562 17.27448272705078 78.21369171142578 21.65934181213379 80.27863311767578 26.54141235351562 C 82.41617584228516 31.59512901306152 83.5 36.96437835693359 83.5 42.5 C 83.5 48.03562164306641 82.41617584228516 53.40486907958984 80.27863311767578 58.45858764648438 C 78.21369171142578 63.34066009521484 75.25723266601562 67.72553253173828 71.49137878417969 71.49137878417969 C 67.72553253173828 75.25723266601562 63.34066009521484 78.21369171142578 58.45858764648438 80.27863311767578 C 53.40486907958984 82.41617584228516 48.03562164306641 83.5 42.5 83.5 Z" stroke="none"/>
                        <path d="M 42.5 3 C 37.16621398925781 3 31.99356079101562 4.043960571289062 27.125732421875 6.102882385253906 C 22.42246627807617 8.092185974121094 18.19785308837891 10.94070434570312 14.56928253173828 14.56928253173828 C 10.94070434570312 18.19785308837891 8.092185974121094 22.42246627807617 6.102882385253906 27.125732421875 C 4.043960571289062 31.99356079101562 3 37.16621398925781 3 42.5 C 3 47.83378601074219 4.043960571289062 53.00643920898438 6.102882385253906 57.874267578125 C 8.092185974121094 62.57753372192383 10.94070434570312 66.80214691162109 14.56928253173828 70.43071746826172 C 18.19785308837891 74.05929565429688 22.42246627807617 76.90781402587891 27.125732421875 78.89711761474609 C 31.99356079101562 80.95603942871094 37.16621398925781 82 42.5 82 C 47.83378601074219 82 53.00643920898438 80.95603942871094 57.874267578125 78.89711761474609 C 62.57753372192383 76.90781402587891 66.80214691162109 74.05929565429688 70.43071746826172 70.43071746826172 C 74.05929565429688 66.80214691162109 76.90781402587891 62.57753372192383 78.89711761474609 57.874267578125 C 80.95603942871094 53.00643920898438 82 47.83378601074219 82 42.5 C 82 37.16621398925781 80.95603942871094 31.99356079101562 78.89711761474609 27.125732421875 C 76.90781402587891 22.42246627807617 74.05929565429688 18.19785308837891 70.43071746826172 14.56928253173828 C 66.80214691162109 10.94070434570312 62.57753372192383 8.092185974121094 57.874267578125 6.102882385253906 C 53.00643920898438 4.043960571289062 47.83378601074219 3 42.5 3 M 42.5 0 C 65.97210693359375 0 85 19.02789306640625 85 42.5 C 85 65.97210693359375 65.97210693359375 85 42.5 85 C 19.02789306640625 85 0 65.97210693359375 0 42.5 C 0 19.02789306640625 19.02789306640625 0 42.5 0 Z" stroke="none" fill="#1d7083"/>
                      </g>
                    </g>
                  </g>
                </g>
              </g>
            </g>
          </g>
        </g>
      </g>
    </g>
    <g id="poncho_2759719" transform="translate(1151.014 1334.656)">
      <g id="Grupo_1203618" data-name="Grupo 1203618" transform="translate(0.861 1.205)">
        <path id="Trazado_1041063" data-name="Trazado 1041063" d="M64.414,21.838,61.5,19.927l-2.373,1.449-8.972-4.187-1.776-5.847a23.2,23.2,0,0,0-24.505,0l1.293,5.594-11.18,6.384L10.75,19.927,7.832,21.838a.74.74,0,0,0-.2,1.05l1,1.4H8.64v0l2.232.829,2.287,3,.666,3.441,1.952.392,2,2.282L18.72,38.4l1.553.4,2.766,4.023.675,2.563h0l1.559.348,2.284,2.532L28.721,52.4l1.532.428,2.094,2.023,1.319,4.47,2.457,3.439,2.457-3.439.7-4.089L42.3,52.778l1.224-.376.4-2.1,3.544-4.443,1.059-.464.546-1.464,3.812-5.34.637-.186.125-1.509,3.618-4.949,1.15-.392L58.8,30.11l3.068-4.9,1.742-.929,1-1.4a.74.74,0,0,0-.2-1.05Z" transform="translate(-7.497 -7.843)" fill="#ee6161"/>
        <g id="Grupo_1203614" data-name="Grupo 1203614">
          <path id="Trazado_1041064" data-name="Trazado 1041064" d="M37.652,14.26l1.34-.878a23.219,23.219,0,0,1,7.355-3.165A23.2,23.2,0,0,0,23.87,11.342l1.293,5.594-11.18,6.384L10.75,19.927,7.832,21.838a.74.74,0,0,0-.2,1.05l1,1.4h0l0,0,2.237.831,2.25,2.8.7,3.634,1.952.392,2,2.282.764,2.92L18.72,38.4l1.959.51,1.6,1.951.941,2.438.493,2.091,1.559.348,2.284,2.532L28.721,52.4h0l1.532.428,2.094,2.023,1.319,4.47,2.3,3.217a.194.194,0,0,0,.316,0l2.3-3.217.7-4.089L42.3,52.778l1.224-.376.337-6.865.949-.142L34.517,30.986A11.8,11.8,0,0,1,37.652,14.26Z" transform="translate(-7.497 -7.843)" fill="#e94444"/>
          <g id="XMLID_773_" transform="translate(12.332 3.499)">
            <g id="Grupo_1203609" data-name="Grupo 1203609">
              <path id="Trazado_1041065" data-name="Trazado 1041065" d="M147.519,40.96,133.2,61.257a2.411,2.411,0,0,1-3.94,0l-14.323-20.3,3.577-2.343c.154-.1.308-.2.464-.3l12.253,17.364,12.253-17.364c.156.1.31.194.464.3Z" transform="translate(-114.933 -38.322)" fill="#fedf30"/>
            </g>
          </g>
          <g id="XMLID_774_" transform="translate(3.253 6.137)">
            <g id="Grupo_1203610" data-name="Grupo 1203610">
              <path id="Trazado_1041066" data-name="Trazado 1041066" d="M86.579,98.55,62.613,132.513a1.723,1.723,0,0,1-2.815,0L35.833,98.55l2.882-1.888,22.491,31.871L83.7,96.662Z" transform="translate(-35.833 -92.603)" fill="#fedf30"/>
              <path id="Trazado_1041067" data-name="Trazado 1041067" d="M105.924,65.361,83.434,97.232,60.943,65.361l6.2-4.059L81.464,81.6a2.411,2.411,0,0,0,3.94,0L99.727,61.3Z" transform="translate(-58.061 -61.302)" fill="#7bacdf"/>
            </g>
          </g>
          <g id="XMLID_775_" transform="translate(1.136 16.441)">
            <g id="Grupo_1203611" data-name="Grupo 1203611" transform="translate(0 0)">
              <path id="Trazado_1041068" data-name="Trazado 1041068" d="M197.338,396.022v6.922l-4.945-6.922Z" transform="translate(-172.305 -367.905)" fill="#5f99d7"/>
              <path id="Trazado_1041069" data-name="Trazado 1041069" d="M153.779,334.963v7.008l-5.007-7.009Z" transform="translate(-133.691 -313.854)" fill="#5f99d7"/>
              <path id="Trazado_1041070" data-name="Trazado 1041070" d="M110.257,273.162v7.094l-4.994-6.991.143-.1Z" transform="translate(-95.176 -259.148)" fill="#5f99d7"/>
              <path id="Trazado_1041071" data-name="Trazado 1041071" d="M67.67,214.392v6.746l-.143.1-4.893-6.849Z" transform="translate(-57.44 -207.124)" fill="#5f99d7"/>
              <path id="Trazado_1041072" data-name="Trazado 1041072" d="M22.584,151.075v7.267l-5.193-7.268Z" transform="translate(-17.391 -151.074)" fill="#5f99d7"/>
            </g>
          </g>
          <g id="XMLID_799_" transform="translate(31.082 16.442)">
            <g id="Grupo_1203613" data-name="Grupo 1203613" transform="translate(0 0)">
              <path id="Trazado_1041073" data-name="Trazado 1041073" d="M283.218,396.022l-4.945,6.922v-6.922Z" transform="translate(-278.273 -367.905)" fill="#5f99d7"/>
              <path id="Trazado_1041074" data-name="Trazado 1041074" d="M326.36,334.962l-5.007,7.009v-7.008Z" transform="translate(-316.408 -313.854)" fill="#7bacdf"/>
              <path id="Trazado_1041075" data-name="Trazado 1041075" d="M324.5,337.577l-1.86-2.6h-1.286v7.008Z" transform="translate(-316.408 -313.864)" fill="#5f99d7"/>
              <g id="Grupo_1203612" data-name="Grupo 1203612" transform="translate(9.952)">
                <path id="Trazado_1041076" data-name="Trazado 1041076" d="M369.967,273.265l-4.994,6.991v-7.094h4.851Z" transform="translate(-364.973 -259.148)" fill="#7bacdf"/>
                <path id="Trazado_1041077" data-name="Trazado 1041077" d="M412.27,214.392l-4.893,6.849-.143-.1v-6.746Z" transform="translate(-402.382 -207.124)" fill="#7bacdf"/>
                <path id="Trazado_1041078" data-name="Trazado 1041078" d="M456.306,151.077l-5.193,7.268v-7.267Z" transform="translate(-441.225 -151.077)" fill="#7bacdf"/>
              </g>
            </g>
          </g>
        </g>
        <path id="Trazado_1041079" data-name="Trazado 1041079" d="M132.458,61.94l-2.838-3.972a11.741,11.741,0,0,1-2.173-7.635l-8.474-12.01c-.156.1-.31.194-.464.3l-3.577,2.343,14.323,20.3a2.411,2.411,0,0,0,3.2.682Z" transform="translate(-102.601 -34.824)" fill="#fed402"/>
        <path id="Trazado_1041080" data-name="Trazado 1041080" d="M89.354,88.843l-4.688-6.562a2.411,2.411,0,0,1-3.2-.682L67.14,61.3l-6.2,4.059L83.434,97.232Z" transform="translate(-54.808 -55.165)" fill="#5f99d7"/>
        <path id="Trazado_1041081" data-name="Trazado 1041081" d="M67.126,120.144l-5.92,8.39L38.715,96.662,36.5,98.111h0l-.671.44L59.8,132.513a1.723,1.723,0,0,0,2.815,0l6.634-9.4Z" transform="translate(-32.58 -86.467)" fill="#fed402"/>
        <g id="Grupo_1203615" data-name="Grupo 1203615" transform="translate(46.029 30.559)">
          <path id="Trazado_1041082" data-name="Trazado 1041082" d="M408.483,274.062h0Z" transform="translate(-408.483 -274.062)" fill="#ee6161"/>
        </g>
        <g id="Grupo_1203616" data-name="Grupo 1203616" transform="translate(16.217 37.55)">
          <path id="Trazado_1041083" data-name="Trazado 1041083" d="M148.77,334.962h0Z" transform="translate(-148.77 -334.962)" fill="#e94444"/>
        </g>
        <g id="Grupo_1203617" data-name="Grupo 1203617" transform="translate(11.222 30.559)">
          <path id="Trazado_1041084" data-name="Trazado 1041084" d="M105.26,274.062h0Z" transform="translate(-105.26 -274.062)" fill="#e94444"/>
        </g>
      </g>
      <path id="Trazado_1041085" data-name="Trazado 1041085" d="M58.945,15.524a1.61,1.61,0,0,0-.7-1.045L42.675,4.279a24.07,24.07,0,0,0-26.377,0L.724,14.48A1.6,1.6,0,0,0,.3,16.751l5.327,7.456v4.958a.861.861,0,1,0,1.722,0V26.617l4.018,5.624v5.09a.861.861,0,0,0,1.722,0v-2.68l3.718,5.2v5.056a.861.861,0,0,0,1.722,0V42.265L22.2,47.409v5.036a.861.861,0,1,0,1.722,0V49.819l4.7,6.581v1.977a.861.861,0,0,0,1.722,0V56.4l4.7-6.581v2.626a.861.861,0,0,0,1.722,0V47.409l3.675-5.144v2.646a.861.861,0,1,0,1.722,0V39.855l3.718-5.2v2.68a.861.861,0,0,0,1.722,0v-5.09l4.018-5.624v2.548a.861.861,0,0,0,1.722,0V24.207l5.327-7.456a1.61,1.61,0,0,0,.271-1.226Zm-2.413,1.262H53.444l1.639-2.322L57.2,15.851ZM29.486,54.643l-1.6-2.233V48.288a2.578,2.578,0,0,0,3.191,0v4.121ZM10.657,24.054H8.05V20.361ZM22.946,41.469,25.369,44.9H22.946Zm-5.007-7.1,2.485,3.521H17.939ZM13.087,27.5l2.33,3.3h-2.33ZM6.329,22.229,3.67,18.509H6.329Zm5.037,3.547v3.5l-2.5-3.5Zm4.852,6.745V36.07l-2.535-3.548Zm5.007,7.1v3.461l-2.473-3.461Zm4.945,7.008V50l-2.411-3.375Zm6.635,0h2.411L32.8,50Zm.8-1.722,2.423-3.434V44.9Zm4.145-5.286h2.473l-2.473,3.461Zm.8-1.722,2.485-3.521v3.521Zm4.206-5.373h2.535L42.756,36.07Zm.8-1.722,2.33-3.3v3.3Zm4.051-5.024h2.5l-2.5,3.5Zm.709-1.722,2.606-3.693v3.693Zm4.328-1.825V18.508H55.3ZM17,5.874l1.733,2.456a.861.861,0,0,0,1.407-.993L18.473,4.968a22.344,22.344,0,0,1,22.026,0L29.486,20.575,22.26,10.335a.861.861,0,1,0-1.407.993l7.93,11.237a.861.861,0,0,0,1.407,0L41.968,5.874l2.594,1.7-1.98,2.806a.861.861,0,1,0,1.407.993L46,8.517l4.756,3.115L34.7,34.389a.861.861,0,1,0,1.407.993L52.2,12.576l1.441.944L30.19,46.755a.861.861,0,0,1-1.407,0L5.331,13.52l1.441-.944L28.783,43.768a.861.861,0,0,0,1.407,0l3.8-5.379a.861.861,0,0,0-1.407-.993l-3.092,4.382L8.213,11.632,12.97,8.517,26.813,28.135a3.271,3.271,0,0,0,5.346,0L41.873,14.37a.861.861,0,0,0-1.407-.993L30.753,27.142a1.55,1.55,0,0,1-2.532,0L14.411,7.573ZM3.89,14.464l1.639,2.322H2.44l-.668-.935Z"/>
    </g>
  </g>
</svg>
