<svg xmlns="http://www.w3.org/2000/svg" width="399.5" height="121.503" viewBox="0 0 399.5 121.503">
  <g id="Grupo_1203629" data-name="Grupo 1203629" transform="translate(-1021 -286.497)">
    <g id="Grupo_1203607" data-name="Grupo 1203607">
      <rect id="Rect치ngulo_415938" data-name="Rect치ngulo 415938" width="399.5" height="58.937" transform="translate(1021 325)" fill="#103d47"/>
      <rect id="Rect치ngulo_415940" data-name="Rect치ngulo 415940" width="275.731" height="106.937" transform="translate(1082 301)" fill="#1d7083"/>
    </g>
    <g id="moai_533493" transform="translate(1157.318 275.677)">
      <path id="Trazado_1043864" data-name="Trazado 1043864" d="M307.662,118.174l-6.038,32.892-3.57,19.462-4.539,1.846-2.022,8.57-1.685,7.146-15.767,1.266-21.08,1.691,2.838-9-.023-.065-1.957-5.81,4.741-7.029-10.286-2.069a4.05,4.05,0,0,1-2.082-6.724c3.045-3.247,8.733-7.42,14.2-11.664,3.236-2.514,6.009-4.8,8.365-6.83C276.863,134.845,280,130.847,280,130.847l-5.592-9.885,11.332-12.8a9.013,9.013,0,0,1,9.947-2.444l6.328,2.41A9,9,0,0,1,307.662,118.174Z" transform="translate(-184.363 -70.942)" fill="#c4ae97"/>
      <g id="Grupo_1203748" data-name="Grupo 1203748" transform="translate(21.209 50.021)">
        <path id="Trazado_1043865" data-name="Trazado 1043865" d="M319,251.445,302.722,288.5c-8.553-.29-17.106,1.7-23.061,3.543l.023.065-2.838,9,21.08-1.691,14.229-1.143,1.538-.123h0L315.38,291h0l2.021-8.569,4.54-1.847,3.571-19.461Z" transform="translate(-229.459 -231.023)" fill="#ad9786"/>
        <path id="Trazado_1043866" data-name="Trazado 1043866" d="M363.429,178.2l-5.21,3.8-11.978,9.483-5.668-1.565c8.113-7.009,11.246-11.005,11.246-11.005l-5.592-9.885,11.018,2.52a6.581,6.581,0,0,1,4.774,3.663Z" transform="translate(-277.395 -169.027)" fill="#ad9786"/>
        <path id="Trazado_1043867" data-name="Trazado 1043867" d="M287.6,329.976h0a5.15,5.15,0,0,0,5.76-2.553c1.581-2.938,4.188-6.88,7.437-8.479,0,0-3.276,8.264-2.98,10.774s-4.318,11.5-14.115,6.038Z" transform="translate(-234.614 -281.797)" fill="#ad9786"/>
        <path id="Trazado_1043868" data-name="Trazado 1043868" d="M120.082,370.248a31.4,31.4,0,0,1-2.576,9.2l-7.213-.476L90,377.634a53.987,53.987,0,0,0,.435-8.407,40.363,40.363,0,0,0-.6-6.2c-.647-3.547-1.908-6.962-4.233-9.215l31.066-3.241A35.57,35.57,0,0,1,120.082,370.248Z" transform="translate(-85.598 -305.589)" fill="#ad9786"/>
      </g>
      <path id="Trazado_1043869" data-name="Trazado 1043869" d="M116.671,350.575l-31.066,3.241c2.325,2.253,3.586,5.668,4.233,9.215l18.256-2.967s2.394,3.227,2.505,12.2a14.518,14.518,0,0,1-5.124-.555,63.269,63.269,0,0,0-15.035-2.48,54.025,54.025,0,0,1-.435,8.407l20.293,1.336,3.809.252h0l3.405.225C124.309,364.432,116.671,350.575,116.671,350.575Z" transform="translate(-64.394 -255.569)" fill="#9e8878"/>
      <path id="Trazado_1043870" data-name="Trazado 1043870" d="M68.76,28.908l-.067,33.443-.039,19.786-4.137,2.628-.841,16.125-15.288,4.06-20.438,5.429,1.183-9.365-3-5.427,3.407-7.762-10.488-.2a4.05,4.05,0,0,1-3.249-6.245c2.416-3.739,7.267-8.86,11.884-14.009,2.737-3.052,5.057-5.8,7.011-8.215,6.732-8.345,9.1-12.837,9.1-12.837l-7.267-8.728L45.4,22.976a9.012,9.012,0,0,1,9.349-4.181L61.4,20.037A9,9,0,0,1,68.76,28.908Z" transform="translate(-11.397 -5.884)" fill="#c4ae97"/>
      <g id="Grupo_1203749" data-name="Grupo 1203749" transform="translate(15.343 31.708)">
        <path id="Trazado_1043871" data-name="Trazado 1043871" d="M169.587,169.654l-.039,19.786-4.137,2.628-.841,16.125-15.288,4.06,12.169-50.961Z" transform="translate(-127.635 -144.894)" fill="#ad9786"/>
        <path id="Trazado_1043872" data-name="Trazado 1043872" d="M114.444,101.073,110,105.741,99.9,117.211l-5.857-.528c6.732-8.345,9.1-12.837,9.1-12.837L95.88,95.118l11.291.513a6.581,6.581,0,0,1,5.352,2.752Z" transform="translate(-86.087 -95.118)" fill="#ad9786"/>
        <path id="Trazado_1043873" data-name="Trazado 1043873" d="M64.723,257.749h0a5.151,5.151,0,0,0,5.212-3.54c1.032-3.173,2.893-7.518,5.8-9.67,0,0-1.748,8.717-1.008,11.133s-2.194,12.091-12.809,8.462Z" transform="translate(-61.921 -207.514)" fill="#ad9786"/>
      </g>
      <path id="Trazado_1043874" data-name="Trazado 1043874" d="M130.819,443.258H7.838S18,427.516,42.889,433.543,108.533,409.095,130.819,443.258Z" transform="translate(-5.896 -312.878)" fill="#008b48"/>
      <path id="Trazado_1043875" data-name="Trazado 1043875" d="M138.449,462.146H27.085c5.551-3.583,14.75-6.783,28.34-3.493C78.582,464.264,115.479,438.267,138.449,462.146Z" transform="translate(-20.374 -331.766)" fill="#008040"/>
      <path id="Trazado_1043876" data-name="Trazado 1043876" d="M373.406,249.692a1.935,1.935,0,0,0,.8-.172c8.594-3.873,10.033-13.025,10.274-16.111l1.7-1.245a1.942,1.942,0,1,0-2.291-3.136l-2.452,1.792a1.941,1.941,0,0,0-.8,1.567c0,.1-.1,10.017-8.033,13.593a1.942,1.942,0,0,0,.8,3.713Z" transform="translate(-279.42 -163.858)"/>
      <path id="Trazado_1043877" data-name="Trazado 1043877" d="M135.611,165.281a1.934,1.934,0,0,0,1.1-.342c7.764-5.345,7.546-14.607,7.232-17.686l1.454-1.529a1.942,1.942,0,0,0-2.815-2.676l-2.093,2.2a1.952,1.952,0,0,0-.5,1.679c.071.4,1.649,9.908-5.476,14.813a1.942,1.942,0,0,0,1.1,3.541Z" transform="translate(-100.547 -99.009)"/>
      <path id="Trazado_1043878" data-name="Trazado 1043878" d="M108.144,114.167l2.669-11.314,3.611-1.471a1.942,1.942,0,0,0,1.177-1.448l9.609-52.354a10.946,10.946,0,0,0-6.872-12.207l-6.328-2.409a11,11,0,0,0-12.089,2.972L88.591,48.729a1.967,1.967,0,0,0-.24,2.247l4.923,8.7c-1.963,2.208-7.554,8.073-18.442,16.531-.977.759-1.962,1.516-2.937,2.266-4.564,3.509-8.876,6.823-11.482,9.6a5.991,5.991,0,0,0,3.078,9.948l.036.007,7.429,1.5-3.11,4.614a1.963,1.963,0,0,0-.23,1.7l1.776,5.274-1.484,4.711-.6.136c-3.486.783-6.911,1.551-10.228,2.174a37.093,37.093,0,0,0-2.831-23.559l.762-14.6L58.3,77.89a1.942,1.942,0,0,0,.9-1.634L59.3,23.027a10.946,10.946,0,0,0-8.942-10.783L43.706,11a11,11,0,0,0-11.364,5.083L23.48,30.691a1.968,1.968,0,0,0,.162,2.259l6.4,7.682C28.5,43.156,24.049,49.924,14.845,60.19c-.826.922-1.66,1.843-2.486,2.755-3.864,4.267-7.514,8.3-9.582,11.5a5.991,5.991,0,0,0,4.805,9.238h.036l7.577.146L12.96,88.923a1.961,1.961,0,0,0,.078,1.719l2.689,4.872-1.1,8.737a1.942,1.942,0,0,0,2.425,2.12l5.74-1.524a38.84,38.84,0,0,1,1.286,12.57,33.661,33.661,0,0,0-14.893,4.154A26.522,26.522,0,0,0,.31,129.327a1.942,1.942,0,0,0,1.631,3H124.923a1.942,1.942,0,0,0,1.626-3C121.262,121.214,114.971,116.577,108.144,114.167Zm3.83-15.98L109,99.4l-1.469-.359,4.273-23.546,3.4,5.06Zm-38.7,12.294-.655-1.945,3.51,1.361a1.942,1.942,0,0,0,1.4-3.621l-5.108-1.98,2.706-4.015c.1,0,.195.009.291.009a7.086,7.086,0,0,0,6.241-3.723c2.086-3.875,4.424-6.594,6.585-7.656a1.942,1.942,0,1,0-1.714-3.485c-3.691,1.816-6.546,6.06-8.29,9.3a3.208,3.208,0,0,1-3.589,1.587l-.046-.009-.032-.008L64.314,94.229a2.107,2.107,0,0,1-1.068-3.5c2.39-2.549,6.58-5.77,11.016-9.18.98-.754,1.97-1.515,2.953-2.278,11.255-8.742,16.959-14.737,19.025-17.081l2.086.763a1.942,1.942,0,0,0,1.335-3.647l-2.688-.983L93.9,52.9l6.728,1.54.086.018a4.647,4.647,0,0,1,3.365,2.582l1.412,2.989A1.942,1.942,0,0,0,109,58.364l-1.412-2.989a8.539,8.539,0,0,0-6.137-4.736l-7.787-1.782,9.164-10.346a7.1,7.1,0,0,1,7.8-1.918L116.958,39a7.063,7.063,0,0,1,4.434,7.876l-2.476,13.489-.208-.343a1.943,1.943,0,0,0-1.269-.894l-2.519-.517a1.942,1.942,0,0,0-.781,3.8l1.689.347,2.034,3.35-1.647,8.972L112.8,70.013l.229-1.261a1.942,1.942,0,0,0-3.821-.694l-5.822,32.085a1.942,1.942,0,0,0,1.45,2.233l1.985.485-2.41,10.214c-10.228-2.4-21.421-.531-32.126,1.787l1-3.178A1.95,1.95,0,0,0,73.274,110.482ZM52.609,76.906l-1.51-.091V52.884l4.253,4.371-.036,17.929ZM19.433,94.191l-.992-1.8,3.7.712a1.963,1.963,0,0,0,.369.035,1.942,1.942,0,0,0,.365-3.849l-5.379-1.036,1.947-4.435A7.085,7.085,0,0,0,25.2,79c1.36-4.185,3.176-7.277,5.112-8.709a1.942,1.942,0,0,0-2.309-3.123C24.7,69.616,22.647,74.3,21.51,77.8A3.2,3.2,0,0,1,18.261,80h-.046l-.033,0L7.715,79.8a2.108,2.108,0,0,1-1.675-3.249c1.9-2.934,5.444-6.852,9.2-11,.83-.917,1.669-1.843,2.5-2.769,9.513-10.611,14.055-17.528,15.669-20.2l2.189.379a1.942,1.942,0,1,0,.662-3.827l-2.82-.488-3.993-4.8,6.894.314.088,0A4.646,4.646,0,0,1,40.2,36.1l1.923,2.689a1.942,1.942,0,1,0,3.159-2.259l-1.923-2.689a8.539,8.539,0,0,0-6.884-3.564l-7.981-.363L35.662,18.1a7.1,7.1,0,0,1,7.332-3.28l6.657,1.24a7.063,7.063,0,0,1,5.769,6.958l-.028,13.715-.266-.3a1.94,1.94,0,0,0-1.409-.653l-2.571-.059a1.942,1.942,0,0,0-.089,3.883l1.724.039,2.6,2.933L55.363,51.7,51.1,47.316V46.034a1.942,1.942,0,1,0-3.884,0V78.643a1.942,1.942,0,0,0,1.825,1.938l2.04.123-.668,12.788-31.574,8.385.821-6.5A1.94,1.94,0,0,0,19.433,94.191ZM51.211,97.3a33.524,33.524,0,0,1,1.668,21.552c-1.623.239-3.214.426-4.765.546.4-11.293-2.489-15.567-2.856-16.061a1.942,1.942,0,1,0-3.116,2.318c.028.038,2.489,3.687,2.081,13.888a29.657,29.657,0,0,1-6.773-.762,49.084,49.084,0,0,0-9.489-1.378,42.018,42.018,0,0,0-1.412-13.554ZM6.277,128.438c4.291-3.92,13.892-9.849,30.259-5.884,9.214,2.232,20.1-.211,31.619-2.8,19.343-4.342,39.31-8.826,53,8.681Z"/>
    </g>
  </g>
</svg>
