<svg xmlns="http://www.w3.org/2000/svg" xmlns:xlink="http://www.w3.org/1999/xlink" width="34.069" height="34.069" viewBox="0 0 34.069 34.069">
  <defs>
    <clipPath id="clip-path">
      <path id="path567" d="M0-682.665H34.069V-648.6H0Z" transform="translate(0 682.665)"/>
    </clipPath>
  </defs>
  <g id="g563" transform="translate(0 682.665)">
    <g id="g565" transform="translate(0 -682.665)" clip-path="url(#clip-path)">
      <g id="g571" transform="translate(18.626 2.462)">
        <path id="path573" d="M0-85.908l1.914-3.3a2.422,2.422,0,0,1,4.2,0l7.125,12.341" transform="translate(0 90.42)" fill="none" stroke="#060606" stroke-linecap="round" stroke-linejoin="round" stroke-miterlimit="10" stroke-width="1"/>
      </g>
      <g id="g575" transform="translate(11.342 9.246)">
        <path id="path577" d="M0-195.947l5.967-10.292" transform="translate(0 206.239)" fill="none" stroke="#060606" stroke-linecap="round" stroke-linejoin="round" stroke-miterlimit="10" stroke-width="1"/>
      </g>
      <g id="g579" transform="translate(4.055 8.268)">
        <path id="path581" d="M0-169.9l4.455-7.713a2.422,2.422,0,0,1,4.2,0l2.241,3.882" transform="translate(0 178.822)" fill="none" stroke="#060606" stroke-linecap="round" stroke-linejoin="round" stroke-miterlimit="10" stroke-width="1"/>
      </g>
      <g id="g583" transform="translate(8.849 14.425)">
        <path id="path585" d="M-470.633-54.829a12.065,12.065,0,0,0-9.815-2.728c-6.507,1-8.7,4.169-14.906,5.745" transform="translate(495.353 57.709)" fill="none" stroke="#060606" stroke-linecap="round" stroke-linejoin="round" stroke-miterlimit="10" stroke-width="1"/>
      </g>
      <g id="g587" transform="translate(0.499 18.13)">
        <path id="path589" d="M-629.594-24.106a10.993,10.993,0,0,0-7.153-1.065c-8.715,1.763-16.307,15.238-25.918,15.238" transform="translate(662.665 25.372)" fill="none" stroke="#060606" stroke-linecap="round" stroke-linejoin="round" stroke-miterlimit="10" stroke-width="1"/>
      </g>
      <g id="g591" transform="translate(1.83 3.872)">
        <path id="path593" d="M-17.611-27.661h.261a1.469,1.469,0,0,1,2.938,0h.243a.961.961,0,0,1,0,1.92h-3.442A.961.961,0,0,1-17.611-27.661Z" transform="translate(18.536 29.114)" fill="none" stroke="#060606" stroke-linecap="round" stroke-linejoin="round" stroke-miterlimit="10" stroke-width="1"/>
      </g>
      <g id="g595" transform="translate(9.518 0.499)">
        <path id="path597" d="M-17.611-27.661h.261a1.469,1.469,0,0,1,2.938,0h.243a.961.961,0,0,1,0,1.92h-3.442A.961.961,0,0,1-17.611-27.661Z" transform="translate(18.536 29.114)" fill="none" stroke="#060606" stroke-linecap="round" stroke-linejoin="round" stroke-miterlimit="10" stroke-width="1"/>
      </g>
      <g id="g599" transform="translate(29.257 27.336)">
        <path id="path601" d="M0-118.669V-124.9" transform="translate(0 124.902)" fill="none" stroke="#060606" stroke-linecap="round" stroke-linejoin="round" stroke-miterlimit="10" stroke-width="1"/>
      </g>
      <g id="g603" transform="translate(25.681 28.658)">
        <path id="path605" d="M-117.652-19.549a4.319,4.319,0,0,1-.594.378,4.294,4.294,0,0,1-2.01.5,4.308,4.308,0,0,1-3.576-1.9" transform="translate(123.832 20.576)" fill="none" stroke="#060606" stroke-linecap="round" stroke-linejoin="round" stroke-miterlimit="10" stroke-width="1"/>
      </g>
      <g id="g607" transform="translate(25.097 21.934)">
        <path id="path609" d="M0-60.392a4.314,4.314,0,0,1,4.16-3.172,4.313,4.313,0,0,1,4.312,4.313,4.3,4.3,0,0,1-.331,1.659" transform="translate(0 63.564)" fill="none" stroke="#060606" stroke-linecap="round" stroke-linejoin="round" stroke-miterlimit="10" stroke-width="1"/>
      </g>
      <g id="g611" transform="translate(21.965 28.431)">
        <path id="path613" d="M0-97.829v-5.139" transform="translate(0 102.968)" fill="none" stroke="#060606" stroke-linecap="round" stroke-linejoin="round" stroke-miterlimit="10" stroke-width="1"/>
      </g>
      <g id="g615" transform="translate(18.09 23.513)">
        <path id="path617" d="M-147.553-73.777a3.875,3.875,0,0,1-3.875,3.875,3.875,3.875,0,0,1-3.875-3.875,3.875,3.875,0,0,1,3.875-3.875A3.875,3.875,0,0,1-147.553-73.777Z" transform="translate(155.304 77.652)" fill="none" stroke="#060606" stroke-linecap="round" stroke-linejoin="round" stroke-miterlimit="10" stroke-width="1"/>
      </g>
      <g id="g619" transform="translate(4.674 21.927)">
        <path id="path621" d="M0-123.176v-6.47" transform="translate(0 129.646)" fill="none" stroke="#060606" stroke-linecap="round" stroke-linejoin="round" stroke-miterlimit="10" stroke-width="1"/>
      </g>
      <g id="g623" transform="translate(0.499 17.192)">
        <path id="path625" d="M-158.962-79.481a4.175,4.175,0,0,1-4.175,4.175,4.175,4.175,0,0,1-4.175-4.175,4.175,4.175,0,0,1,4.175-4.175A4.175,4.175,0,0,1-158.962-79.481Z" transform="translate(167.312 83.656)" fill="none" stroke="#060606" stroke-linecap="round" stroke-linejoin="round" stroke-miterlimit="10" stroke-width="1"/>
      </g>
      <g id="g627" transform="translate(28.098 1.83)">
        <path id="path629" d="M-78.84-39.42a2.071,2.071,0,0,1-2.071,2.071,2.071,2.071,0,0,1-2.071-2.071,2.071,2.071,0,0,1,2.071-2.071A2.071,2.071,0,0,1-78.84-39.42Z" transform="translate(82.981 41.491)" fill="none" stroke="#060606" stroke-linecap="round" stroke-linejoin="round" stroke-miterlimit="10" stroke-width="1"/>
      </g>
    </g>
  </g>
</svg>
