<svg xmlns="http://www.w3.org/2000/svg" xmlns:xlink="http://www.w3.org/1999/xlink" width="103" height="103" viewBox="0 0 103 103">
  <defs>
    <filter id="Trazado_982547" x="0" y="0" width="103" height="103" filterUnits="userSpaceOnUse">
      <feOffset dy="3" input="SourceAlpha"/>
      <feGaussianBlur stdDeviation="3" result="blur"/>
      <feFlood flood-opacity="0.161"/>
      <feComposite operator="in" in2="blur"/>
      <feComposite in="SourceGraphic"/>
    </filter>
  </defs>
  <g id="Grupo_1203622" data-name="Grupo 1203622" transform="translate(-499 -1312)">
    <g id="Grupo_1203556" data-name="Grupo 1203556" transform="translate(508 1318)">
      <g id="Grupo_1202212" data-name="Grupo 1202212">
        <g id="Grupo_1174813" data-name="Grupo 1174813">
          <g id="Grupo_1201680" data-name="Grupo 1201680">
            <g id="Grupo_1201330" data-name="Grupo 1201330">
              <g id="Grupo_1172010" data-name="Grupo 1172010">
                <g id="Grupo_1171046" data-name="Grupo 1171046">
                  <g id="Grupo_1148525" data-name="Grupo 1148525">
                    <g transform="matrix(1, 0, 0, 1, -9, -6)" filter="url(#Trazado_982547)">
                      <g id="Trazado_982547-2" data-name="Trazado 982547" transform="translate(9 6)" fill="#f2f7e5">
                        <path d="M 42.5 83.5 C 36.96437835693359 83.5 31.59512901306152 82.41617584228516 26.54141235351562 80.27863311767578 C 21.65934181213379 78.21369171142578 17.27447128295898 75.25723266601562 13.50862312316895 71.49137878417969 C 9.742764472961426 67.72553253173828 6.786305904388428 63.34066009521484 4.721364498138428 58.45858764648438 C 2.583823442459106 53.40486907958984 1.5 48.03562164306641 1.5 42.5 C 1.5 36.96437835693359 2.583823442459106 31.59512901306152 4.721364498138428 26.54141235351562 C 6.786305904388428 21.65934181213379 9.742764472961426 17.27448272705078 13.50862312316895 13.50862312316895 C 17.27447128295898 9.742776870727539 21.65934181213379 6.786305904388428 26.54141235351562 4.721364498138428 C 31.59512901306152 2.583823442459106 36.96437835693359 1.5 42.5 1.5 C 48.03562164306641 1.5 53.40486907958984 2.583823442459106 58.45858764648438 4.721364498138428 C 63.34066009521484 6.786305904388428 67.72553253173828 9.742776870727539 71.49137878417969 13.50862312316895 C 75.25723266601562 17.27448272705078 78.21369171142578 21.65934181213379 80.27863311767578 26.54141235351562 C 82.41617584228516 31.59512901306152 83.5 36.96437835693359 83.5 42.5 C 83.5 48.03562164306641 82.41617584228516 53.40486907958984 80.27863311767578 58.45858764648438 C 78.21369171142578 63.34066009521484 75.25723266601562 67.72553253173828 71.49137878417969 71.49137878417969 C 67.72553253173828 75.25723266601562 63.34066009521484 78.21369171142578 58.45858764648438 80.27863311767578 C 53.40486907958984 82.41617584228516 48.03562164306641 83.5 42.5 83.5 Z" stroke="none"/>
                        <path d="M 42.5 3 C 37.16621398925781 3 31.99356079101562 4.043960571289062 27.125732421875 6.102882385253906 C 22.42246627807617 8.092185974121094 18.19785308837891 10.94070434570312 14.56928253173828 14.56928253173828 C 10.94070434570312 18.19785308837891 8.092185974121094 22.42246627807617 6.102882385253906 27.125732421875 C 4.043960571289062 31.99356079101562 3 37.16621398925781 3 42.5 C 3 47.83378601074219 4.043960571289062 53.00643920898438 6.102882385253906 57.874267578125 C 8.092185974121094 62.57753372192383 10.94070434570312 66.80214691162109 14.56928253173828 70.43071746826172 C 18.19785308837891 74.05929565429688 22.42246627807617 76.90781402587891 27.125732421875 78.89711761474609 C 31.99356079101562 80.95603942871094 37.16621398925781 82 42.5 82 C 47.83378601074219 82 53.00643920898438 80.95603942871094 57.874267578125 78.89711761474609 C 62.57753372192383 76.90781402587891 66.80214691162109 74.05929565429688 70.43071746826172 70.43071746826172 C 74.05929565429688 66.80214691162109 76.90781402587891 62.57753372192383 78.89711761474609 57.874267578125 C 80.95603942871094 53.00643920898438 82 47.83378601074219 82 42.5 C 82 37.16621398925781 80.95603942871094 31.99356079101562 78.89711761474609 27.125732421875 C 76.90781402587891 22.42246627807617 74.05929565429688 18.19785308837891 70.43071746826172 14.56928253173828 C 66.80214691162109 10.94070434570312 62.57753372192383 8.092185974121094 57.874267578125 6.102882385253906 C 53.00643920898438 4.043960571289062 47.83378601074219 3 42.5 3 M 42.5 0 C 65.97210693359375 0 85 19.02789306640625 85 42.5 C 85 65.97210693359375 65.97210693359375 85 42.5 85 C 19.02789306640625 85 0 65.97210693359375 0 42.5 C 0 19.02789306640625 19.02789306640625 0 42.5 0 Z" stroke="none" fill="#1d7083"/>
                      </g>
                    </g>
                  </g>
                </g>
              </g>
            </g>
          </g>
        </g>
      </g>
    </g>
    <g id="dress_14355536" transform="translate(515.598 1325.596)">
      <g id="Grupo_1203620" data-name="Grupo 1203620" transform="translate(7.5 7.503)">
        <path id="Trazado_1041086" data-name="Trazado 1041086" d="M62.3,278.94a3.425,3.425,0,0,1-2.008,3.143,2.289,2.289,0,0,0-1.3,1.833,3.4,3.4,0,0,1-2.844,2.951,2.239,2.239,0,0,0-1.777,1.351,3.3,3.3,0,0,1-3.033,2.079,3.179,3.179,0,0,1-.61-.058,2.13,2.13,0,0,0-2.178.88,3.255,3.255,0,0,1-2.693,1.45,3.2,3.2,0,0,1-1.091-.192,2.138,2.138,0,0,0-2.2.459,3.2,3.2,0,0,1-3.832.416,2.132,2.132,0,0,0-2.2,0,3.193,3.193,0,0,1-3.28,0,2.132,2.132,0,0,0-2.2,0,3.2,3.2,0,0,1-3.832-.416,2.138,2.138,0,0,0-2.2-.459,3.2,3.2,0,0,1-1.091.192,3.255,3.255,0,0,1-2.693-1.45,2.13,2.13,0,0,0-2.178-.88,3.178,3.178,0,0,1-.61.058,3.3,3.3,0,0,1-3.033-2.08,2.2,2.2,0,0,0-1.1-1.15,2.233,2.233,0,0,0-.666-.2,3.4,3.4,0,0,1-2.849-2.947,2.3,2.3,0,0,0-1.3-1.841A3.425,3.425,0,0,1,7.5,278.94a3.35,3.35,0,0,1,3.289-3.408,17.905,17.905,0,0,0,6.465-1.537,18.14,18.14,0,0,0,7.785-6.411H44.765a18.571,18.571,0,0,0,14.249,7.948A3.35,3.35,0,0,1,62.3,278.94Z" transform="translate(-7.5 -238.902)" fill="#4677d5"/>
        <path id="Trazado_1041087" data-name="Trazado 1041087" d="M18.016,334.938a14.862,14.862,0,0,1-2.677,2.642,2.586,2.586,0,0,0-1.015,1.205,2.232,2.232,0,0,0-.666-.2,3.4,3.4,0,0,1-2.849-2.947,2.3,2.3,0,0,0-1.3-1.841A3.425,3.425,0,0,1,7.5,330.659a3.35,3.35,0,0,1,3.289-3.408,17.9,17.9,0,0,0,6.465-1.537Z" transform="translate(-7.5 -290.621)" fill="#155ac8"/>
        <path id="Trazado_1041088" data-name="Trazado 1041088" d="M85.78,250.882a3.01,3.01,0,0,1-1.764,2.763,2.013,2.013,0,0,0-1.143,1.611,2.985,2.985,0,0,1-2.5,2.594,1.966,1.966,0,0,0-1.56,1.187,2.9,2.9,0,0,1-2.665,1.826,2.858,2.858,0,0,1-.536-.051,1.873,1.873,0,0,0-1.914.773,2.858,2.858,0,0,1-2.367,1.275,2.792,2.792,0,0,1-.957-.169,1.88,1.88,0,0,0-1.931.4,2.81,2.81,0,0,1-3.367.365,1.874,1.874,0,0,0-1.934,0,2.806,2.806,0,0,1-2.882,0,1.874,1.874,0,0,0-1.934,0,2.811,2.811,0,0,1-3.368-.365,1.88,1.88,0,0,0-1.931-.4,2.792,2.792,0,0,1-.957.169,2.858,2.858,0,0,1-2.367-1.275,1.873,1.873,0,0,0-1.914-.773,2.843,2.843,0,0,1-2.973-1.331l-.18-3.074-6.879-4.617a3.068,3.068,0,0,1-.136-.908,2.943,2.943,0,0,1,2.889-2.994,16.135,16.135,0,0,0,6.965-1.976,15.9,15.9,0,0,0,5.557-5.008H70.368a16.32,16.32,0,0,0,12.522,6.984A2.943,2.943,0,0,1,85.78,250.882Z" transform="translate(-34.298 -215.164)" fill="#f9ee80"/>
        <path id="Trazado_1041089" data-name="Trazado 1041089" d="M48.858,286.532l-.747,8.615a9.813,9.813,0,0,1-2.331,3.06,2.331,2.331,0,0,0-.965,1.675,2.975,2.975,0,0,1-.228-.446,1.954,1.954,0,0,0-1.554-1.183,2.984,2.984,0,0,1-2.5-2.589,2.025,2.025,0,0,0-1.146-1.618,3.011,3.011,0,0,1-1.763-2.763,2.943,2.943,0,0,1,2.889-2.994,16.134,16.134,0,0,0,6.965-1.976C48.3,286.445,48.858,286.532,48.858,286.532Z" transform="translate(-34.298 -255.566)" fill="#f9d171"/>
        <path id="Trazado_1041090" data-name="Trazado 1041090" d="M109.248,270.97a2.5,2.5,0,0,1-1.522,2.3,1.678,1.678,0,0,0-.984,1.34,2.527,2.527,0,0,1-2.155,2.158,1.687,1.687,0,0,0-1.345.987,2.5,2.5,0,0,1-2.3,1.52,2.555,2.555,0,0,1-.462-.042,1.638,1.638,0,0,0-1.65.643,2.5,2.5,0,0,1-2.866.92,1.665,1.665,0,0,0-1.664.336,2.494,2.494,0,0,1-2.9.3,1.668,1.668,0,0,0-1.667,0,2.5,2.5,0,0,1-2.485,0,1.668,1.668,0,0,0-1.667,0,2.5,2.5,0,0,1-2.9-.3,1.665,1.665,0,0,0-1.664-.336,2.5,2.5,0,0,1-2.866-.92,1.638,1.638,0,0,0-1.65-.643,2.555,2.555,0,0,1-.462.042A2.469,2.469,0,0,1,74.9,279l-1.139-4.335L68,272.1a2.46,2.46,0,0,1-.271-1.13,2.493,2.493,0,0,1,1.989-2.441,6.651,6.651,0,0,0,1.235-.365h35.069a6.65,6.65,0,0,0,1.235.365A2.493,2.493,0,0,1,109.248,270.97Z" transform="translate(-61.088 -239.418)" fill="#ff938a"/>
        <path id="Trazado_1041091" data-name="Trazado 1041091" d="M82.808,268.164c-1.624,2.858-3.863,6.2-6.335,8.133A3.453,3.453,0,0,0,74.9,279a2.514,2.514,0,0,1-1.165-1.246,1.674,1.674,0,0,0-1.34-.985,2.527,2.527,0,0,1-2.158-2.155,1.687,1.687,0,0,0-.987-1.345,2.494,2.494,0,0,1,.469-4.739,6.651,6.651,0,0,0,1.235-.365Z" transform="translate(-61.088 -239.418)" fill="#fb695b"/>
        <path id="Trazado_1041092" data-name="Trazado 1041092" d="M132.039,203.722c-1.467,3.152-5.716,8.62-17.535,8.62a25.378,25.378,0,0,1-10.438-1.932l-2.292-4.383-4.8-2.3q.1-.04.2-.086a25.825,25.825,0,0,0,9.864-7.9h14.945a25.825,25.825,0,0,0,9.864,7.9Q131.94,203.682,132.039,203.722Z" transform="translate(-87.103 -174.976)" fill="#4677d5"/>
        <path id="Trazado_1041093" data-name="Trazado 1041093" d="M111.466,198.457s-3.2,7.558-7.4,11.952a13.715,13.715,0,0,1-7.1-6.687q.1-.04.2-.086a25.825,25.825,0,0,0,9.864-7.9h.643C109.5,197.031,111.466,198.457,111.466,198.457Z" transform="translate(-87.103 -174.976)" fill="#155ac8"/>
        <path id="Trazado_1041094" data-name="Trazado 1041094" d="M176.357,101.951s-1.66.828-7.367.828c-.708,0-1.355-.012-1.946-.033-4.346-.153-5.632-.8-5.632-.8-2.879-4.255-3.263-9.76-3.314-11.244-.009-.247-.008-.383-.008-.383h21.589S179.715,96.988,176.357,101.951Z" transform="translate(-141.482 -81.19)" fill="#ff938a"/>
        <path id="Trazado_1041095" data-name="Trazado 1041095" d="M167.106,105.833c-4.346-.153-5.632-.8-5.632-.8-2.879-4.255-3.263-9.76-3.314-11.244,2.524.7,5.826,1.649,5.826,1.649S162.98,102.194,167.106,105.833Z" transform="translate(-141.545 -84.278)" fill="#fb695b"/>
        <path id="Trazado_1041096" data-name="Trazado 1041096" d="M126.5,34.685a4.144,4.144,0,0,1-4.491,1.161,1.436,1.436,0,0,0-1.61.644,3.54,3.54,0,0,1-3.151,1.838A5.332,5.332,0,0,1,114.1,37.32a1.442,1.442,0,0,0-1.946.234,4.99,4.99,0,0,1-7.129,0,1.434,1.434,0,0,0-1.4-.476l-3.583-.406-2.037,1.12h0a3.868,3.868,0,0,1-1.227-1.3,1.436,1.436,0,0,0-1.61-.644,4.144,4.144,0,0,1-4.491-1.161,1.441,1.441,0,0,1,.211-2.1,7.8,7.8,0,0,0,1.716-1.8h0L105.1,28.76l3.487-.566,16.057,2.7a7.888,7.888,0,0,0,1.642,1.693A1.441,1.441,0,0,1,126.5,34.685Z" transform="translate(-81.188 -25.912)" fill="#4677d5"/>
        <path id="Trazado_1041097" data-name="Trazado 1041097" d="M105.1,33.324a9.9,9.9,0,0,0-.72,3.753,13.8,13.8,0,0,1-.753,4.565,1.468,1.468,0,0,0-.55.243,5.332,5.332,0,0,1-3.147,1.009,3.54,3.54,0,0,1-3.151-1.838,1.436,1.436,0,0,0-1.61-.644,4.144,4.144,0,0,1-4.491-1.161,1.441,1.441,0,0,1,.211-2.1,7.8,7.8,0,0,0,1.716-1.8h0Z" transform="translate(-81.188 -30.476)" fill="#155ac8"/>
        <path id="Trazado_1041098" data-name="Trazado 1041098" d="M143.08,12.485a5.009,5.009,0,0,1-2.421-.1,1.431,1.431,0,0,0-1.6.65,3.541,3.541,0,0,1-3.151,1.837,5.324,5.324,0,0,1-3.147-1.01,1.441,1.441,0,0,0-1.945.234,4.99,4.99,0,0,1-7.131,0,1.419,1.419,0,0,0-.849-.487l-8.093-2.946-3.7,1.718h0a5.809,5.809,0,0,0,.83-1.837,6.265,6.265,0,0,1,.427-1.192A3.3,3.3,0,0,1,116.389,7.7a28.019,28.019,0,0,0,8.045,1.34c.8.037,1.664.058,2.589.058,5.612,0,8.9-.775,10.634-1.4a3.3,3.3,0,0,1,4.091,1.649,6.263,6.263,0,0,1,.427,1.192A5.857,5.857,0,0,0,143.08,12.485Z" transform="translate(-99.622 -7.503)" fill="#f9ee80"/>
        <path id="Trazado_1041099" data-name="Trazado 1041099" d="M231.455,183.687c-1.489.693-4.287,1.488-9.277,1.488-1.119,0-2.13-.04-3.038-.11l-.925-.409-.225-2.628,1.1-.283h0c.9.068,1.924.109,3.092.109,4.437,0,6.825-.586,8.033-1.061a1.576,1.576,0,0,1,1.244,2.895Z" transform="translate(-194.777 -161.583)" fill="#f9ee80"/>
        <path id="Trazado_1041100" data-name="Trazado 1041100" d="M170.7,185.067a18.2,18.2,0,0,1-6.239-1.377,1.576,1.576,0,0,1,1.244-2.895,17.276,17.276,0,0,0,4.939.952h0A2.382,2.382,0,0,0,170.7,185.067Z" transform="translate(-146.341 -161.585)" fill="#f9d171"/>
        <path id="Trazado_1041101" data-name="Trazado 1041101" d="M124.434,9.039c-.625.58-1.43,1.848-1.6,4.566a1.459,1.459,0,0,0-1.1.254,5.324,5.324,0,0,1-3.147,1.01,3.539,3.539,0,0,1-3.15-1.837,1.432,1.432,0,0,0-1.6-.65,4.761,4.761,0,0,1-2.8,0h0a5.809,5.809,0,0,0,.83-1.837,6.264,6.264,0,0,1,.427-1.192A3.3,3.3,0,0,1,116.389,7.7,28.019,28.019,0,0,0,124.434,9.039Z" transform="translate(-99.622 -7.503)" fill="#f9d171"/>
      </g>
      <g id="Grupo_1203621" data-name="Grupo 1203621" transform="translate(7.5 7.503)">
        <path id="Trazado_1041102" data-name="Trazado 1041102" d="M10.846,339.644h-.057A3.35,3.35,0,0,0,7.5,343.053,3.425,3.425,0,0,0,9.507,346.2a2.3,2.3,0,0,1,1.3,1.841,3.4,3.4,0,0,0,2.849,2.947,2.222,2.222,0,0,1,1.769,1.346,3.277,3.277,0,0,0,3.643,2.021,2.13,2.13,0,0,1,2.178.88,3.228,3.228,0,0,0,3.784,1.258,2.137,2.137,0,0,1,2.2.459,3.2,3.2,0,0,0,3.832.416,2.132,2.132,0,0,1,2.2,0,3.192,3.192,0,0,0,3.28,0,2.132,2.132,0,0,1,2.2,0,3.2,3.2,0,0,0,3.832-.416,2.137,2.137,0,0,1,2.2-.459,3.228,3.228,0,0,0,3.784-1.258,2.13,2.13,0,0,1,2.178-.88,3.277,3.277,0,0,0,3.643-2.02,2.238,2.238,0,0,1,1.762-1.349" transform="translate(-7.5 -303.015)" fill="none" stroke="#000" stroke-linecap="round" stroke-linejoin="round" stroke-miterlimit="10" stroke-width="1"/>
        <path id="Trazado_1041103" data-name="Trazado 1041103" d="M474.021,339.644h.056a3.35,3.35,0,0,1,3.289,3.408,3.425,3.425,0,0,1-2.008,3.143,2.289,2.289,0,0,0-1.3,1.833c-.012.1-.028.191-.049.283" transform="translate(-422.563 -303.015)" fill="none" stroke="#000" stroke-linecap="round" stroke-linejoin="round" stroke-miterlimit="10" stroke-width="1"/>
        <path id="Trazado_1041104" data-name="Trazado 1041104" d="M82.4,304.014c.314.024.49.024.49.024a2.943,2.943,0,0,1,2.889,2.994,3.01,3.01,0,0,1-1.764,2.762,2.013,2.013,0,0,0-1.143,1.611,2.985,2.985,0,0,1-2.5,2.594,1.966,1.966,0,0,0-1.56,1.187,2.881,2.881,0,0,1-3.2,1.776,1.873,1.873,0,0,0-1.914.773,2.835,2.835,0,0,1-3.324,1.106,1.88,1.88,0,0,0-1.931.4,2.81,2.81,0,0,1-3.367.365,1.875,1.875,0,0,0-1.934,0,2.805,2.805,0,0,1-2.882,0,1.875,1.875,0,0,0-1.934,0,2.811,2.811,0,0,1-3.368-.365,1.88,1.88,0,0,0-1.931-.4,2.835,2.835,0,0,1-3.324-1.106,1.873,1.873,0,0,0-1.914-.773,2.882,2.882,0,0,1-3.2-1.777A1.954,1.954,0,0,0,43.033,314a2.985,2.985,0,0,1-2.5-2.589,2.025,2.025,0,0,0-1.146-1.618,3.011,3.011,0,0,1-1.763-2.763,2.943,2.943,0,0,1,2.889-2.994s.175,0,.49-.024" transform="translate(-34.298 -271.314)" fill="none" stroke="#000" stroke-linecap="round" stroke-linejoin="round" stroke-miterlimit="10" stroke-width="1"/>
        <path id="Trazado_1041105" data-name="Trazado 1041105" d="M153.474,211.534a23.558,23.558,0,0,1-2.734,2.588" transform="translate(-134.943 -189.033)" fill="none" stroke="#000" stroke-linecap="round" stroke-linejoin="round" stroke-miterlimit="10" stroke-width="1"/>
        <path id="Trazado_1041106" data-name="Trazado 1041106" d="M97.36,211.534a26.851,26.851,0,0,0,8.465,6.159,6.448,6.448,0,0,0,1.434.451,2.494,2.494,0,0,1,.468,4.739,1.678,1.678,0,0,0-.984,1.34,2.527,2.527,0,0,1-2.155,2.158,1.687,1.687,0,0,0-1.345.987,2.5,2.5,0,0,1-2.76,1.478,1.638,1.638,0,0,0-1.65.643,2.494,2.494,0,0,1-2.866.92,1.665,1.665,0,0,0-1.664.336,2.493,2.493,0,0,1-2.9.3,1.668,1.668,0,0,0-1.667,0,2.5,2.5,0,0,1-2.485,0,1.668,1.668,0,0,0-1.667,0,2.494,2.494,0,0,1-2.9-.3,1.665,1.665,0,0,0-1.664-.336,2.494,2.494,0,0,1-2.866-.92,1.638,1.638,0,0,0-1.65-.643,2.5,2.5,0,0,1-2.76-1.478,1.674,1.674,0,0,0-1.34-.985,2.527,2.527,0,0,1-2.158-2.155,1.687,1.687,0,0,0-.987-1.345,2.494,2.494,0,0,1,.469-4.739,6.448,6.448,0,0,0,1.434-.451,27.5,27.5,0,0,0,2.564-1.361" transform="translate(-61.088 -189.033)" fill="none" stroke="#000" stroke-linecap="round" stroke-linejoin="round" stroke-miterlimit="10" stroke-width="1"/>
        <path id="Trazado_1041107" data-name="Trazado 1041107" d="M333.05,125.255a22.7,22.7,0,0,0,2.03-6.751" transform="translate(-297.148 -106.263)" fill="none" stroke="#000" stroke-linecap="round" stroke-linejoin="round" stroke-miterlimit="10" stroke-width="1"/>
        <path id="Trazado_1041108" data-name="Trazado 1041108" d="M160.48,118.5a22.7,22.7,0,0,0,2.03,6.751" transform="translate(-143.609 -106.263)" fill="none" stroke="#000" stroke-linecap="round" stroke-linejoin="round" stroke-miterlimit="10" stroke-width="1"/>
        <path id="Trazado_1041109" data-name="Trazado 1041109" d="M116.621,8.406a18.819,18.819,0,0,0,2.6-.707,3.3,3.3,0,0,1,4.091,1.649,6.263,6.263,0,0,1,.427,1.192,6.839,6.839,0,0,0,2.546,3.638,1.441,1.441,0,0,1,.211,2.1,4.144,4.144,0,0,1-4.491,1.161,1.436,1.436,0,0,0-1.61.644,3.54,3.54,0,0,1-3.151,1.838A5.332,5.332,0,0,1,114.1,18.91a1.442,1.442,0,0,0-1.946.234,4.99,4.99,0,0,1-7.129,0,1.442,1.442,0,0,0-1.946-.234,5.332,5.332,0,0,1-3.147,1.009,3.54,3.54,0,0,1-3.151-1.838,1.436,1.436,0,0,0-1.61-.644,4.144,4.144,0,0,1-4.491-1.161,1.441,1.441,0,0,1,.211-2.1,6.839,6.839,0,0,0,2.546-3.638,6.263,6.263,0,0,1,.427-1.192A3.3,3.3,0,0,1,97.955,7.7c4.089,1.469,10.555,1.589,14.839,1.235" transform="translate(-81.188 -7.503)" fill="none" stroke="#000" stroke-linecap="round" stroke-linejoin="round" stroke-miterlimit="10" stroke-width="1"/>
        <path id="Trazado_1041110" data-name="Trazado 1041110" d="M111.59,51.368a4.78,4.78,0,0,0,2.745-.014,1.432,1.432,0,0,1,1.6.65,3.539,3.539,0,0,0,3.15,1.837,5.324,5.324,0,0,0,3.147-1.01,1.441,1.441,0,0,1,1.945.234,4.99,4.99,0,0,0,7.131,0,1.441,1.441,0,0,1,1.945-.234,5.324,5.324,0,0,0,3.147,1.01A3.541,3.541,0,0,0,139.551,52a1.431,1.431,0,0,1,1.6-.65,5.053,5.053,0,0,0,2.355.118" transform="translate(-100.111 -46.475)" fill="none" stroke="#000" stroke-linecap="round" stroke-linejoin="round" stroke-miterlimit="10" stroke-width="1"/>
        <path id="Trazado_1041111" data-name="Trazado 1041111" d="M97.4,269.087c1.51,3.166,5.794,8.518,17.487,8.518,11.64,0,15.938-5.3,17.466-8.475" transform="translate(-87.49 -240.239)" fill="none" stroke="#000" stroke-linecap="round" stroke-linejoin="round" stroke-miterlimit="10" stroke-width="1"/>
        <path id="Trazado_1041112" data-name="Trazado 1041112" d="M183.02,183.686c-1.489.692-4.286,1.487-9.277,1.487s-7.788-.8-9.277-1.487a1.576,1.576,0,0,1,1.244-2.9c1.208.476,3.6,1.061,8.033,1.061s6.825-.585,8.033-1.061a1.576,1.576,0,0,1,1.244,2.9Z" transform="translate(-146.342 -161.582)" fill="none" stroke="#000" stroke-linecap="round" stroke-linejoin="round" stroke-miterlimit="10" stroke-width="1"/>
      </g>
    </g>
  </g>
</svg>
