<svg xmlns="http://www.w3.org/2000/svg" xmlns:xlink="http://www.w3.org/1999/xlink" width="103" height="103" viewBox="0 0 103 103">
  <defs>
    <filter id="Trazado_982547" x="0" y="0" width="103" height="103" filterUnits="userSpaceOnUse">
      <feOffset dy="3" input="SourceAlpha"/>
      <feGaussianBlur stdDeviation="3" result="blur"/>
      <feFlood flood-opacity="0.161"/>
      <feComposite operator="in" in2="blur"/>
      <feComposite in="SourceGraphic"/>
    </filter>
    <clipPath id="clip-path">
      <path id="path2245" d="M0-682.665H63.438v63.438H0Z" transform="translate(0 682.665)"/>
    </clipPath>
  </defs>
  <g id="Grupo_1203623" data-name="Grupo 1203623" transform="translate(-814 -1312)">
    <g id="Grupo_1203557" data-name="Grupo 1203557" transform="translate(823 1318)">
      <g id="Grupo_1202212" data-name="Grupo 1202212">
        <g id="Grupo_1174813" data-name="Grupo 1174813">
          <g id="Grupo_1201680" data-name="Grupo 1201680">
            <g id="Grupo_1201330" data-name="Grupo 1201330">
              <g id="Grupo_1172010" data-name="Grupo 1172010">
                <g id="Grupo_1171046" data-name="Grupo 1171046">
                  <g id="Grupo_1148525" data-name="Grupo 1148525">
                    <g transform="matrix(1, 0, 0, 1, -9, -6)" filter="url(#Trazado_982547)">
                      <g id="Trazado_982547-2" data-name="Trazado 982547" transform="translate(9 6)" fill="#f2f7e5">
                        <path d="M 42.5 83.5 C 36.96437835693359 83.5 31.59512901306152 82.41617584228516 26.54141235351562 80.27863311767578 C 21.65934181213379 78.21369171142578 17.27447128295898 75.25723266601562 13.50862312316895 71.49137878417969 C 9.742764472961426 67.72553253173828 6.786305904388428 63.34066009521484 4.721364498138428 58.45858764648438 C 2.583823442459106 53.40486907958984 1.5 48.03562164306641 1.5 42.5 C 1.5 36.96437835693359 2.583823442459106 31.59512901306152 4.721364498138428 26.54141235351562 C 6.786305904388428 21.65934181213379 9.742764472961426 17.27448272705078 13.50862312316895 13.50862312316895 C 17.27447128295898 9.742776870727539 21.65934181213379 6.786305904388428 26.54141235351562 4.721364498138428 C 31.59512901306152 2.583823442459106 36.96437835693359 1.5 42.5 1.5 C 48.03562164306641 1.5 53.40486907958984 2.583823442459106 58.45858764648438 4.721364498138428 C 63.34066009521484 6.786305904388428 67.72553253173828 9.742776870727539 71.49137878417969 13.50862312316895 C 75.25723266601562 17.27448272705078 78.21369171142578 21.65934181213379 80.27863311767578 26.54141235351562 C 82.41617584228516 31.59512901306152 83.5 36.96437835693359 83.5 42.5 C 83.5 48.03562164306641 82.41617584228516 53.40486907958984 80.27863311767578 58.45858764648438 C 78.21369171142578 63.34066009521484 75.25723266601562 67.72553253173828 71.49137878417969 71.49137878417969 C 67.72553253173828 75.25723266601562 63.34066009521484 78.21369171142578 58.45858764648438 80.27863311767578 C 53.40486907958984 82.41617584228516 48.03562164306641 83.5 42.5 83.5 Z" stroke="none"/>
                        <path d="M 42.5 3 C 37.16621398925781 3 31.99356079101562 4.043960571289062 27.125732421875 6.102882385253906 C 22.42246627807617 8.092185974121094 18.19785308837891 10.94070434570312 14.56928253173828 14.56928253173828 C 10.94070434570312 18.19785308837891 8.092185974121094 22.42246627807617 6.102882385253906 27.125732421875 C 4.043960571289062 31.99356079101562 3 37.16621398925781 3 42.5 C 3 47.83378601074219 4.043960571289062 53.00643920898438 6.102882385253906 57.874267578125 C 8.092185974121094 62.57753372192383 10.94070434570312 66.80214691162109 14.56928253173828 70.43071746826172 C 18.19785308837891 74.05929565429688 22.42246627807617 76.90781402587891 27.125732421875 78.89711761474609 C 31.99356079101562 80.95603942871094 37.16621398925781 82 42.5 82 C 47.83378601074219 82 53.00643920898438 80.95603942871094 57.874267578125 78.89711761474609 C 62.57753372192383 76.90781402587891 66.80214691162109 74.05929565429688 70.43071746826172 70.43071746826172 C 74.05929565429688 66.80214691162109 76.90781402587891 62.57753372192383 78.89711761474609 57.874267578125 C 80.95603942871094 53.00643920898438 82 47.83378601074219 82 42.5 C 82 37.16621398925781 80.95603942871094 31.99356079101562 78.89711761474609 27.125732421875 C 76.90781402587891 22.42246627807617 74.05929565429688 18.19785308837891 70.43071746826172 14.56928253173828 C 66.80214691162109 10.94070434570312 62.57753372192383 8.092185974121094 57.874267578125 6.102882385253906 C 53.00643920898438 4.043960571289062 47.83378601074219 3 42.5 3 M 42.5 0 C 65.97210693359375 0 85 19.02789306640625 85 42.5 C 85 65.97210693359375 65.97210693359375 85 42.5 85 C 19.02789306640625 85 0 65.97210693359375 0 42.5 C 0 19.02789306640625 19.02789306640625 0 42.5 0 Z" stroke="none" fill="#1d7083"/>
                      </g>
                    </g>
                  </g>
                </g>
              </g>
            </g>
          </g>
        </g>
      </g>
    </g>
    <g id="g2235" transform="translate(833.781 2012.446)">
      <g id="g2237" transform="translate(16.546 -673.098)">
        <path id="path2239" d="M0-28.956l8.469-2.966h9.489l8.9,3.242L19.812,8.984,15.188,6.659h-3.95L6.725,8.886Z" transform="translate(0 31.923)" fill="#e7eaf0"/>
      </g>
      <g id="g2241" transform="translate(0 -682.665)">
        <g id="g2243" clip-path="url(#clip-path)">
          <g id="g2249" transform="translate(36.353 12.033)">
            <path id="path2251" d="M-129.569-419.89l-11.226-1.979a2.478,2.478,0,0,1-2.01-2.871l6.368-36.118a2.478,2.478,0,0,1,2.871-2.01l11.226,1.98a2.478,2.478,0,0,1,2.01,2.871L-126.7-421.9a2.478,2.478,0,0,1-2.871,2.01" transform="translate(142.843 462.906)" fill="#ff7c7a"/>
          </g>
          <g id="g2253" transform="translate(1.24 11.387)">
            <path id="path2255" d="M-195.37-400.565l-10.738,1.893a2.478,2.478,0,0,1-2.871-2.01l-6.369-36.118a2.478,2.478,0,0,1,2.01-2.871l10.738-1.893a2.478,2.478,0,0,1,2.871,2.01l6.369,36.118a2.478,2.478,0,0,1-2.01,2.871" transform="translate(215.385 441.602)" fill="#ff7c7a"/>
          </g>
          <g id="g2257" transform="translate(2.002 17.863)">
            <path id="path2259" d="M-95.285,0l-9.762,1.721,5.164,29.285,9.762-1.721Z" transform="translate(105.046)" fill="#fff"/>
          </g>
          <g id="g2261" transform="translate(3.035 23.719)">
            <path id="path2263" d="M-95.285,0l-9.762,1.721,1.033,5.857,9.761-1.721Z" transform="translate(105.046)" fill="#8391b2"/>
          </g>
          <g id="g2265" transform="translate(5.1 35.433)">
            <path id="path2267" d="M-95.284,0l-9.761,1.721,1.033,5.857,9.761-1.721Z" transform="translate(105.045)" fill="#8391b2"/>
          </g>
          <g id="g2269" transform="translate(1.24 11.387)">
            <path id="path2271" d="M-193.359-249.867l2.216,12.568a2.478,2.478,0,0,1-2.01,2.871l-10.738,1.893a2.478,2.478,0,0,1-2.871-2.01l-6.369-36.118a2.478,2.478,0,0,1,2.01-2.871l10.738-1.893a2.478,2.478,0,0,1,2.871,2.01l2.216,12.567" transform="translate(213.168 275.465)" fill="none" stroke="#000" stroke-linecap="round" stroke-linejoin="round" stroke-miterlimit="10" stroke-width="1"/>
          </g>
          <g id="g2273" transform="translate(3.035 23.719)">
            <path id="path2275" d="M0-16.8l9.762-1.721" transform="translate(0 18.523)" fill="none" stroke="#000" stroke-linecap="round" stroke-linejoin="round" stroke-miterlimit="10" stroke-width="1"/>
          </g>
          <g id="g2277" transform="translate(4.068 29.576)">
            <path id="path2279" d="M0-16.8l9.761-1.721" transform="translate(0 18.523)" fill="none" stroke="#000" stroke-linecap="round" stroke-linejoin="round" stroke-miterlimit="10" stroke-width="1"/>
          </g>
          <g id="g2281" transform="translate(5.1 35.433)">
            <path id="path2283" d="M0-16.8l9.761-1.721" transform="translate(0 18.523)" fill="none" stroke="#000" stroke-linecap="round" stroke-linejoin="round" stroke-miterlimit="10" stroke-width="1"/>
          </g>
          <g id="g2285" transform="translate(6.133 41.29)">
            <path id="path2287" d="M0-16.8l9.761-1.721" transform="translate(0 18.523)" fill="none" stroke="#000" stroke-linecap="round" stroke-linejoin="round" stroke-miterlimit="10" stroke-width="1"/>
          </g>
          <g id="g2289" transform="translate(2.002 17.863)">
            <path id="path2291" d="M0-16.8l9.762-1.721,5.164,29.285L5.164,12.483" transform="translate(0 18.523)" fill="none" stroke="#000" stroke-linecap="round" stroke-linejoin="round" stroke-miterlimit="10" stroke-width="1"/>
          </g>
          <g id="g2293" transform="translate(36.353 12.033)">
            <path id="path2295" d="M-129.569-419.89l-11.226-1.979a2.478,2.478,0,0,1-2.01-2.871l6.368-36.118a2.478,2.478,0,0,1,2.871-2.01l11.226,1.98a2.478,2.478,0,0,1,2.01,2.871L-126.7-421.9A2.478,2.478,0,0,1-129.569-419.89Z" transform="translate(142.843 462.906)" fill="none" stroke="#000" stroke-linecap="round" stroke-linejoin="round" stroke-miterlimit="10" stroke-width="1"/>
          </g>
          <g id="g2297" transform="translate(47.354 19.42)">
            <path id="path2299" d="M0,0H0" fill="none" stroke="#000" stroke-linecap="round" stroke-linejoin="round" stroke-miterlimit="10" stroke-width="1"/>
          </g>
          <g id="g2301" transform="translate(52.723 20.367)">
            <path id="path2303" d="M0,0H0" fill="none" stroke="#000" stroke-linecap="round" stroke-linejoin="round" stroke-miterlimit="10" stroke-width="1"/>
          </g>
          <g id="g2305" transform="translate(46.407 24.789)">
            <path id="path2307" d="M0,0H0" fill="none" stroke="#000" stroke-linecap="round" stroke-linejoin="round" stroke-miterlimit="10" stroke-width="1"/>
          </g>
          <g id="g2309" transform="translate(51.776 25.736)">
            <path id="path2311" d="M0,0H0" fill="none" stroke="#000" stroke-linecap="round" stroke-linejoin="round" stroke-miterlimit="10" stroke-width="1"/>
          </g>
          <g id="g2313" transform="translate(45.46 30.158)">
            <path id="path2315" d="M0,0H0" fill="none" stroke="#000" stroke-linecap="round" stroke-linejoin="round" stroke-miterlimit="10" stroke-width="1"/>
          </g>
          <g id="g2317" transform="translate(50.829 31.105)">
            <path id="path2319" d="M0,0H0" fill="none" stroke="#000" stroke-linecap="round" stroke-linejoin="round" stroke-miterlimit="10" stroke-width="1"/>
          </g>
          <g id="g2321" transform="translate(44.514 35.527)">
            <path id="path2323" d="M0,0H0" fill="none" stroke="#000" stroke-linecap="round" stroke-linejoin="round" stroke-miterlimit="10" stroke-width="1"/>
          </g>
          <g id="g2325" transform="translate(49.883 36.473)">
            <path id="path2327" d="M0,0H0" fill="none" stroke="#000" stroke-linecap="round" stroke-linejoin="round" stroke-miterlimit="10" stroke-width="1"/>
          </g>
          <g id="g2329" transform="translate(43.567 40.896)">
            <path id="path2331" d="M0,0H0" fill="none" stroke="#000" stroke-linecap="round" stroke-linejoin="round" stroke-miterlimit="10" stroke-width="1"/>
          </g>
          <g id="g2333" transform="translate(48.936 41.842)">
            <path id="path2335" d="M0,0H0" fill="none" stroke="#000" stroke-linecap="round" stroke-linejoin="round" stroke-miterlimit="10" stroke-width="1"/>
          </g>
          <g id="g2337" transform="translate(42.62 46.265)">
            <path id="path2339" d="M0,0H0" fill="none" stroke="#000" stroke-linecap="round" stroke-linejoin="round" stroke-miterlimit="10" stroke-width="1"/>
          </g>
          <g id="g2341" transform="translate(47.989 47.211)">
            <path id="path2343" d="M0,0H0" fill="none" stroke="#000" stroke-linecap="round" stroke-linejoin="round" stroke-miterlimit="10" stroke-width="1"/>
          </g>
          <g id="g2345" transform="translate(53.358 21.314)">
            <path id="path2347" d="M0-262.032H0l4.733-26.844a4.969,4.969,0,0,1,4.03,5.756L5.756-266.063A4.968,4.968,0,0,1,0-262.032Z" transform="translate(0 288.877)" fill="none" stroke="#000" stroke-linecap="round" stroke-linejoin="round" stroke-miterlimit="10" stroke-width="1"/>
          </g>
          <g id="g2349" transform="translate(24.922 8.538)">
            <path id="path2351" d="M-28.913-400.132l-2.962-40.992" transform="translate(31.875 441.124)" fill="none" stroke="#000" stroke-linecap="round" stroke-linejoin="round" stroke-miterlimit="10" stroke-width="1"/>
          </g>
          <g id="g2353" transform="translate(31.456 8.351)">
            <path id="path2355" d="M0-401.19l3.141-41.1" transform="translate(0 442.291)" fill="none" stroke="#000" stroke-linecap="round" stroke-linejoin="round" stroke-miterlimit="10" stroke-width="1"/>
          </g>
          <g id="g2357" transform="translate(23.271 48.149)">
            <path id="path2359" d="M-127.748-22.691l-4.624-2.325h-3.95l-4.513,2.227" transform="translate(140.836 25.016)" fill="none" stroke="#000" stroke-linecap="round" stroke-linejoin="round" stroke-miterlimit="10" stroke-width="1"/>
          </g>
          <g id="g2361" transform="translate(16.546 9.567)">
            <path id="path2363" d="M0-28.956l8.469-2.966h9.489l8.9,3.242" transform="translate(0 31.923)" fill="none" stroke="#000" stroke-linecap="round" stroke-linejoin="round" stroke-miterlimit="10" stroke-width="1"/>
          </g>
          <g id="g2365" transform="translate(20.08 31.494)">
            <path id="path2367" d="M0,0H0" fill="none" stroke="#000" stroke-linecap="round" stroke-linejoin="round" stroke-miterlimit="10" stroke-width="1"/>
          </g>
        </g>
      </g>
    </g>
  </g>
</svg>
