<svg xmlns="http://www.w3.org/2000/svg" xmlns:xlink="http://www.w3.org/1999/xlink" width="399.5" height="131.086" viewBox="0 0 399.5 131.086">
  <defs>
    <clipPath id="clip-path">
      <path id="path11910" d="M0-682.665H131.086v131.086H0Z" transform="translate(0 682.665)"/>
    </clipPath>
  </defs>
  <g id="Grupo_1203624" data-name="Grupo 1203624" transform="translate(-1020.5 -3576.761)">
    <g id="Grupo_1203581" data-name="Grupo 1203581" transform="translate(0 3315.847)">
      <rect id="Rect치ngulo_415938" data-name="Rect치ngulo 415938" width="399.5" height="58.937" transform="translate(1020.5 300.685)" fill="#103d47"/>
      <g id="Grupo_1177160" data-name="Grupo 1177160" transform="translate(-83.231)">
        <rect id="Rect치ngulo_415940" data-name="Rect치ngulo 415940" width="275.731" height="112.937" transform="translate(1176.73 279.063)" fill="#1d7083"/>
      </g>
    </g>
    <g id="g11904" transform="translate(1173.457 4259.426)">
      <g id="g11906" transform="translate(0 -682.665)">
        <g id="g11908" clip-path="url(#clip-path)">
          <g id="g11914" transform="translate(37.8 3.373)">
            <path id="path11916" d="M-99.96-157.123l-8.51,3.235-15.246-28.126,3.622-10a3.711,3.711,0,0,1,5.213-2.024l9.88,5.185h0Z" transform="translate(123.716 194.465)" fill="#d4f3f6"/>
          </g>
          <g id="g11918" transform="translate(21.479 13.066)">
            <path id="path11920" d="M-132.828-129.951l-9.048,3.207-21.466-17.821-1.04-12.242a3.712,3.712,0,0,1,4.516-3.935l11.791,2.664Z" transform="translate(164.395 160.834)" fill="#d4f3f6"/>
          </g>
          <g id="g11922" transform="translate(9.537 29.336)">
            <path id="path11924" d="M-145.008-74.986l-4.739,5.671-24.171-5.671-5.067-8.932a3.711,3.711,0,0,1,2.037-5.346l10.474-3.542Z" transform="translate(179.469 92.806)" fill="#d4f3f6"/>
          </g>
          <g id="g11926" transform="translate(5.613 47.157)">
            <path id="path11928" d="M-141.581-23.863v9.086l-24.171,3.033L-173.6-17.06a3.71,3.71,0,0,1-.246-5.963l8.092-6.511Z" transform="translate(175.229 29.535)" fill="#d4f3f6"/>
          </g>
          <g id="g11930" transform="translate(56.518 1.92)">
            <path id="path11932" d="M-75.956-29.8-81,1.931h-4.029V1.913h-3.945l-5.039-31.73v0l6.5-6.068a3.688,3.688,0,0,1,5.036,0Z" transform="translate(94.008 36.881)" fill="#d4f3f6"/>
          </g>
          <g id="g11934" transform="translate(56.518 1.92)">
            <path id="path11936" d="M-75.956-29.8-81,1.931h-4.029V1.913h-3.945l-5.039-31.73v0l6.5-6.068a3.688,3.688,0,0,1,5.036,0Z" transform="translate(94.008 36.881)" fill="#d4f3f6"/>
          </g>
          <g id="g11938" transform="translate(69.53 3.394)">
            <path id="path11940" d="M-99.96-52.388l-15.249,28.126-8.507-3.238,5.039-31.73,9.882-5.182a3.711,3.711,0,0,1,5.213,2.021Z" transform="translate(123.716 64.839)" fill="#d4f3f6"/>
          </g>
          <g id="g11942" transform="translate(83.174 3.394)">
            <path id="path11944" d="M-3.6-10.3.025-.3,2.062,6.341,5.66-.3l-3.622-10A3.711,3.711,0,0,0-3.174-12.32l-1.278.67A3.687,3.687,0,0,1-3.6-10.3" transform="translate(4.452 12.747)" fill="#a6e7f0"/>
          </g>
          <g id="g11946" transform="translate(78.037 13.087)">
            <path id="path11948" d="M-132.769-16.938-133.806-4.7l-21.468,17.824-9.048-3.207,15.249-28.126,11.791-2.664a3.709,3.709,0,0,1,4.514,3.932" transform="translate(164.322 20.963)" fill="#d4f3f6"/>
          </g>
          <g id="g11950" transform="translate(102.416 13.087)">
            <path id="path11952" d="M-11.2-.392l-2.662.6a3.691,3.691,0,0,1,1.54,3.331l-1.038,12.242-.229,4.869,5.865-4.869L-6.686,3.54A3.709,3.709,0,0,0-11.2-.392" transform="translate(13.861 0.486)" fill="#a6e7f0"/>
          </g>
          <g id="g11954" transform="translate(87.085 29.354)">
            <path id="path11956" d="M-142.976-37.4l-5.069,8.935L-172.214-22.8l-4.742-5.672,21.469-17.823,10.472,3.543a3.711,3.711,0,0,1,2.039,5.346" transform="translate(176.956 46.291)" fill="#d4f3f6"/>
          </g>
          <g id="g11958" transform="translate(106.922 29.354)">
            <path id="path11960" d="M-50.927-14.907-61.4-18.449l-1.632,1.354,6.468,2.188a3.711,3.711,0,0,1,2.039,5.346L-59.593-.626-60.044.8l6.087-1.428,5.069-8.935a3.711,3.711,0,0,0-2.039-5.346" transform="translate(63.031 18.449)" fill="#a6e7f0"/>
          </g>
          <g id="g11962" transform="translate(91.826 47.177)">
            <path id="path11964" d="M-134.72-52.492l-7.849,5.313-24.168-3.033v-9.083l24.168-5.672,8.092,6.509a3.711,3.711,0,0,1-.243,5.966" transform="translate(166.737 64.967)" fill="#d4f3f6"/>
          </g>
          <g id="g11966" transform="translate(111.241 47.177)">
            <path id="path11968" d="M-54.054-27.388-62.146-33.9l-4.363,1.024,6.819,5.485a3.711,3.711,0,0,1-.243,5.966L-66.9-16.706l4.754.6,7.849-5.313a3.711,3.711,0,0,0,.243-5.966" transform="translate(66.9 33.897)" fill="#a6e7f0"/>
          </g>
          <g id="g11970" transform="translate(5.613 47.157)">
            <path id="path11972" d="M-5.826-27.4l8.092-6.512,2.72,6.3a6.044,6.044,0,0,1,.051,4.672L2.266-16.12-5.58-21.436A3.71,3.71,0,0,1-5.826-27.4" transform="translate(7.211 33.911)" fill="#b9acac"/>
          </g>
          <g id="g11974" transform="translate(10.671 47.157)">
            <path id="path11976" d="M-30.038-26.515l-2.72-6.3-4.182,3.365,1.267,2.936a6.045,6.045,0,0,1,.051,4.672l-1.555,3.823,4.419,2.993,2.771-6.816a6.045,6.045,0,0,0-.051-4.672" transform="translate(37.177 32.816)" fill="#9e9797"/>
          </g>
          <g id="g11978" transform="translate(9.537 29.336)">
            <path id="path11980" d="M-10.61-14.907-.135-18.449.057-10.4A6.05,6.05,0,0,1-1.916-5.79L-7.579-.628l-5.067-8.932a3.711,3.711,0,0,1,2.036-5.346" transform="translate(13.131 18.449)" fill="#b9acac"/>
          </g>
          <g id="g11982" transform="translate(13.169 29.336)">
            <path id="path11984" d="M-39.4,0l-5.59,1.891.147,6.158a6.05,6.05,0,0,1-1.972,4.611l-1.949,1.776,1.92,3.385,5.664-5.162a6.049,6.049,0,0,0,1.972-4.611Z" transform="translate(48.768)" fill="#9e9797"/>
          </g>
          <g id="g11986" transform="translate(21.479 13.067)">
            <path id="path11988" d="M-19.061-.392-7.27,2.272l-4.1,7.3a6.027,6.027,0,0,1-2.848,2.577l-8.318,3.637-1.04-12.242A3.712,3.712,0,0,1-19.061-.392" transform="translate(23.591 0.485)" fill="#b9acac"/>
          </g>
          <g id="g11990" transform="translate(21.894 13.067)">
            <path id="path11992" d="M-17.318-.391a3.711,3.711,0,0,0-4.116,1.916,3.685,3.685,0,0,1,3.1-.692l7.173,1.44-4.1,7.3a6.026,6.026,0,0,1-2.849,2.577L-21,13.409l.2,2.376,8.318-3.637A6.027,6.027,0,0,0-9.628,9.571l4.1-7.3Z" transform="translate(21.433 0.484)" fill="#9e9797"/>
          </g>
          <g id="g11994" transform="translate(37.8 3.373)">
            <path id="path11996" d="M-37.176-1.794l9.88,5.185-6.2,5.366a6.046,6.046,0,0,1-3.955,1.473h-8.556l3.622-10a3.711,3.711,0,0,1,5.213-2.024" transform="translate(46.011 2.22)" fill="#b9acac"/>
          </g>
          <g id="g11998" transform="translate(40.72 3.374)">
            <path id="path12000" d="M-24.888-1.793a3.711,3.711,0,0,0-4.358.671l8.6,4.514-6.2,5.366A6.046,6.046,0,0,1-30.8,10.231h5.635a6.046,6.046,0,0,0,3.955-1.473l6.2-5.366Z" transform="translate(30.803 2.219)" fill="#9e9797"/>
          </g>
          <g id="g12002" transform="translate(56.518 1.92)">
            <path id="path12004" d="M-48.525-4.18l6.519,6.089-6.253,3.22A6.056,6.056,0,0,1-53.8,5.124l-6.255-3.235,6.5-6.068a3.688,3.688,0,0,1,5.036,0" transform="translate(60.057 5.173)" fill="#b9acac"/>
          </g>
          <g id="g12006" transform="translate(62.714 1.92)">
            <path id="path12008" d="M-22.452-4.18a3.688,3.688,0,0,0-5.036,0l-.3.28,6.219,5.809L-27.77,5.1l.041.021a6.056,6.056,0,0,0,5.543.005l6.253-3.22Z" transform="translate(27.788 5.173)" fill="#9e9797"/>
          </g>
          <g id="g12010" transform="translate(74.569 3.394)">
            <path id="path12012" d="M-63.518-10.3-59.9-.3l-8.266.451a6.043,6.043,0,0,1-4.485-1.647l-5.966-5.646,9.883-5.182A3.711,3.711,0,0,1-63.518-10.3" transform="translate(78.613 12.747)" fill="#b9acac"/>
          </g>
          <g id="g12014" transform="translate(83.11 3.394)">
            <path id="path12016" d="M-27.579-10.3a3.711,3.711,0,0,0-5.213-2.021l-1.278.67a3.687,3.687,0,0,1,.855,1.351l3.622,10-4.541.248a6.062,6.062,0,0,0,1.91.2L-23.957-.3Z" transform="translate(34.133 12.747)" fill="#9e9797"/>
          </g>
          <g id="g12018" transform="translate(93.286 13.087)">
            <path id="path12020" d="M-68.606-16.938-69.643-4.7-77.73-7.934a6.052,6.052,0,0,1-3.061-2.718l-4.119-7.554,11.791-2.664a3.709,3.709,0,0,1,4.514,3.932" transform="translate(84.91 20.963)" fill="#b9acac"/>
          </g>
          <g id="g12022" transform="translate(102.416 13.087)">
            <path id="path12024" d="M-11.2-.392l-2.662.6a3.691,3.691,0,0,1,1.54,3.331L-13.174,13.6l5.451,2.183L-6.686,3.54A3.709,3.709,0,0,0-11.2-.392" transform="translate(13.861 0.486)" fill="#9e9797"/>
          </g>
          <g id="g12026" transform="translate(12.533 97.443)">
            <path id="path12028" d="M-446.467-133.481H-552.572l1.859-15.362.054-.441a18.1,18.1,0,0,1,17.964-15.92s66.875.005,67.134.018a18.1,18.1,0,0,1,17.18,15.9l.054.441Z" transform="translate(552.572 165.204)" fill="#d78878"/>
          </g>
          <g id="g12030" transform="translate(97.518 97.456)">
            <path id="path12032" d="M-88.869-133.427h-5.479l-1.86-15.362-.054-.441a18.823,18.823,0,0,0-13.728-15.907l2.026.005a18.1,18.1,0,0,1,17.18,15.9l.054.441Z" transform="translate(109.989 165.137)" fill="#c96e58"/>
          </g>
          <g id="g12034" transform="translate(108.197 29.354)">
            <path id="path12036" d="M-54.141-37.4l-5.069,8.935-5.664-4.805A6.051,6.051,0,0,1-67-38.142l.351-8.148,10.472,3.543A3.711,3.711,0,0,1-54.141-37.4" transform="translate(67.008 46.291)" fill="#b9acac"/>
          </g>
          <g id="g12038" transform="translate(108.472 29.354)">
            <path id="path12040" d="M-44.4-14.907l-10.472-3.543-.081,1.879,4.917,1.664A3.711,3.711,0,0,1-48-9.561l-3.238,5.707,3.8,3.228,5.069-8.935A3.711,3.711,0,0,0-44.4-14.907" transform="translate(54.956 18.449)" fill="#9e9797"/>
          </g>
          <g id="g12042" transform="translate(14.392 97.443)">
            <path id="path12044" d="M-430.817-68.843l-23.41,11.409-8.11,3.952h-39.4l-8.059-3.935L-533.2-68.843l.054-.441A18.1,18.1,0,0,1-515.184-85.2H-504.7c12.332,0,32.724.005,45.384.01,6.673,0,11.2.005,11.266.008a18.1,18.1,0,0,1,17.18,15.9Z" transform="translate(533.203 85.204)" fill="#fe646f"/>
          </g>
          <g id="g12046" transform="translate(79.779 97.459)">
            <path id="path12048" d="M-155.685-68.778-179.1-57.369l-8.11,3.952h-5.479l8.11-3.952,23.41-11.409-.054-.441a18.828,18.828,0,0,0-13.72-15.9c1.273,0,1.993,0,2.019,0a18.1,18.1,0,0,1,17.18,15.9Z" transform="translate(192.685 85.124)" fill="#fd4755"/>
          </g>
          <g id="g12050" transform="translate(112.678 47.177)">
            <path id="path12052" d="M-46.98-52.492l-7.849,5.313-2.733-5.761a6.043,6.043,0,0,1-.149-4.841l2.882-7.185,8.092,6.509a3.711,3.711,0,0,1-.243,5.966" transform="translate(58.145 64.967)" fill="#b9acac"/>
          </g>
          <g id="g12054" transform="translate(114.62 47.177)">
            <path id="path12056" d="M-39.834-27.388-47.926-33.9-49.3-30.47l3.831,3.082a3.711,3.711,0,0,1-.243,5.966L-49.3-19l1.37,2.887,7.849-5.313a3.711,3.711,0,0,0,.243-5.966" transform="translate(49.301 33.897)" fill="#9e9797"/>
          </g>
          <g id="g12058" transform="translate(37.697 76.72)">
            <path id="path12060" d="M-234.691-87.2c0,3.361-2.841,5.956-6.709,7.928v0c-6.283,3.2-15.277,4.775-19.212,5.341a13.876,13.876,0,0,1-3.935,0c-3.922-.564-12.875-2.126-19.155-5.315-3.9-1.975-6.765-4.578-6.765-7.956l4.716-14.232,2.152-6.491h42.041l2.118,6.4Z" transform="translate(290.467 107.92)" fill="#fbc56d"/>
          </g>
          <g id="g12062" transform="translate(62.845 76.72)">
            <path id="path12064" d="M-108.892-26.913l-2.118-6.4h-5.479l2.119,6.4,4.749,14.327c0,3.361-2.841,5.956-6.709,7.928v0c-5.9,3.01-14.194,4.578-18.44,5.226.275.042.533.08.773.114a13.875,13.875,0,0,0,3.935,0c3.935-.566,12.928-2.137,19.212-5.341v0c3.868-1.972,6.709-4.567,6.709-7.928Z" transform="translate(134.77 33.309)" fill="#e9b765"/>
          </g>
          <g id="g12066" transform="translate(18.958 69.039)">
            <path id="path12068" d="M-85.428,0a32.182,32.182,0,0,1-7.309,13.771c-6.142,6.493-12.993,6.53-12.993,6.53a17.157,17.157,0,0,1,4.451-12.033C-95.3,1.608-85.428,0-85.428,0" transform="translate(105.73)" fill="#6c7fd8"/>
          </g>
          <g id="g12070" transform="translate(18.958 69.039)">
            <path id="path12072" d="M-60.112-7.438a31.085,31.085,0,0,1-6.772,12,21.616,21.616,0,0,1-7.48,5.208c-.023.432-.038.87-.033,1.321,0,0,6.85-.036,12.992-6.53A32.183,32.183,0,0,0-54.1-9.205a32.393,32.393,0,0,0-6.016,1.768" transform="translate(74.398 9.205)" fill="#4f66d0"/>
          </g>
          <g id="g12074" transform="translate(59.706 111.425)">
            <path id="path12076" d="M-49.3-24.648a5.858,5.858,0,0,1-5.858,5.858,5.858,5.858,0,0,1-5.858-5.858,5.858,5.858,0,0,1,5.858-5.858A5.858,5.858,0,0,1-49.3-24.648" transform="translate(61.012 30.505)" fill="#d4f3f6"/>
          </g>
          <g id="g12078" transform="translate(62.825 111.425)">
            <path id="path12080" d="M-11.527,0a5.83,5.83,0,0,0-2.739.68,5.856,5.856,0,0,1,3.118,5.178,5.856,5.856,0,0,1-3.118,5.178,5.83,5.83,0,0,0,2.739.68A5.858,5.858,0,0,0-5.669,5.858,5.858,5.858,0,0,0-11.527,0" transform="translate(14.267)" fill="#a6e7f0"/>
          </g>
          <g id="g12082" transform="translate(39.26 44.987)">
            <path id="path12084" d="M-221.183,0V26.27a24.2,24.2,0,0,1-24.2,24.2h-4.163a24.2,24.2,0,0,1-24.2-24.2V0Z" transform="translate(273.749)" fill="#ffcebf"/>
          </g>
          <g id="g12086" transform="translate(62.803 44.987)">
            <path id="path12088" d="M-99.064,0V26.27a24.2,24.2,0,0,1-23.543,24.193q.328.009.658.009h4.163a24.2,24.2,0,0,0,24.2-24.2V0Z" transform="translate(122.608)" fill="#ffaf9e"/>
          </g>
          <g id="g12090" transform="translate(91.826 52.848)">
            <path id="path12092" d="M0-68.207H2.4a7.542,7.542,0,0,0,7.542-7.542v-1.126A7.542,7.542,0,0,0,2.4-84.417H0Z" transform="translate(0 84.417)" fill="#ffcebf"/>
          </g>
          <g id="g12094" transform="translate(91.826 52.848)">
            <path id="path12096" d="M-10.1,0h-2.4V.658A7.542,7.542,0,0,1-8.033,7.542V8.668A7.542,7.542,0,0,1-12.5,15.552v.657h2.4A7.542,7.542,0,0,0-2.554,8.668V7.542A7.542,7.542,0,0,0-10.1,0" transform="translate(12.496)" fill="#ffaf9e"/>
          </g>
          <g id="g12098" transform="translate(29.319 52.829)">
            <path id="path12100" d="M-41.832-68.207h-2.4a7.542,7.542,0,0,1-7.542-7.542v-1.126a7.542,7.542,0,0,1,7.542-7.542h2.4Z" transform="translate(51.773 84.417)" fill="#ffcebf"/>
          </g>
          <g id="g12102" transform="translate(33.781 52.829)">
            <path id="path12104" d="M-12.959,0a7.512,7.512,0,0,0-3.08.658V15.552a7.508,7.508,0,0,0,3.08.658h2.4V0Z" transform="translate(16.039)" fill="#ffaf9e"/>
          </g>
          <g id="g12106" transform="translate(61.555 60.239)">
            <path id="path12108" d="M-16.958-67.483h0a4.03,4.03,0,0,1-4.03-4.03v-7.978a4.03,4.03,0,0,1,4.03-4.03,4.03,4.03,0,0,1,4.03,4.03v7.978a4.03,4.03,0,0,1-4.03,4.03" transform="translate(20.988 83.521)" fill="#ffa78f"/>
          </g>
          <g id="g12110" transform="translate(63.358 60.239)">
            <path id="path12112" d="M-9.373,0A4.01,4.01,0,0,0-11.6.673,4.026,4.026,0,0,1-9.8,4.03v7.978a4.026,4.026,0,0,1-1.8,3.358,4.01,4.01,0,0,0,2.227.672,4.03,4.03,0,0,0,4.03-4.03V4.03A4.03,4.03,0,0,0-9.373,0" transform="translate(11.6)" fill="#f89580"/>
          </g>
          <g id="g12114" transform="translate(35.418 28.444)">
            <path id="path12116" d="M-16.168-102.606l-3.842-12.8L6.245-126.219a10.249,10.249,0,0,1,7.822.006L40.24-115.384l-3.842,12.8L10.889-105.82a5.85,5.85,0,0,0-1.463,0Z" transform="translate(20.011 126.991)" fill="#fbc56d"/>
          </g>
          <g id="g12118" transform="translate(62.837 28.446)">
            <path id="path12120" d="M-28.015-3.268a10.246,10.246,0,0,0-6.658-.4,10.186,10.186,0,0,1,1.179.4L-7.322,7.561l-3.641,12.128,5.278.669,3.842-12.8Z" transform="translate(34.673 4.045)" fill="#e9b765"/>
          </g>
          <g id="g12122" transform="translate(91.825 69.058)">
            <path id="path12124" d="M0,0A32.182,32.182,0,0,0,7.309,13.771C13.451,20.265,20.3,20.3,20.3,20.3a17.157,17.157,0,0,0-4.45-12.033C9.875,1.608,0,0,0,0" fill="#6c7fd8"/>
          </g>
          <g id="g12126" transform="translate(91.825 69.058)">
            <path id="path12128" d="M-43.642-34.793a17.024,17.024,0,0,1,4.417,10.711,16.25,16.25,0,0,0,5.513,1.321,17.156,17.156,0,0,0-4.45-12.033c-5.975-6.66-15.851-8.269-15.851-8.269.17.609.351,1.195.537,1.768a26.141,26.141,0,0,1,9.835,6.5" transform="translate(54.013 43.061)" fill="#4f66d0"/>
          </g>
          <g id="g12130" transform="translate(37.8 107.428)">
            <path id="path12132" d="M-33.909-91.466-41.968-95.4-30.4-113.2" transform="translate(41.968 113.204)" fill="none" stroke="#000" stroke-linecap="round" stroke-linejoin="round" stroke-miterlimit="10" stroke-width="2"/>
          </g>
          <g id="g12134" transform="translate(85.258 119.904)">
            <path id="path12136" d="M-19.217,0l3.543,5.309-8.11,3.953" transform="translate(23.784)" fill="none" stroke="#000" stroke-linecap="round" stroke-linejoin="round" stroke-miterlimit="10" stroke-width="2"/>
          </g>
          <g id="g12138" transform="translate(81.559 107.518)">
            <path id="path12140" d="M0,0,3.322,4.977" fill="none" stroke="#000" stroke-linecap="round" stroke-linejoin="round" stroke-miterlimit="10" stroke-width="2"/>
          </g>
          <g id="g12142" transform="translate(37.697 83.116)">
            <path id="path12144" d="M-214.709,0l4.749,14.327c0,3.361-2.841,5.956-6.709,7.928v0c-6.283,3.2-15.277,4.775-19.212,5.341a13.875,13.875,0,0,1-3.935,0c-3.922-.564-12.875-2.126-19.155-5.315-3.9-1.975-6.765-4.578-6.765-7.956L-261.019.095" transform="translate(265.735)" fill="none" stroke="#000" stroke-linecap="round" stroke-linejoin="round" stroke-miterlimit="10" stroke-width="2"/>
          </g>
          <g id="g12146" transform="translate(82.487 90.358)">
            <path id="path12148" d="M0,0,4.278,15.013v0" fill="none" stroke="#000" stroke-linecap="round" stroke-linejoin="round" stroke-miterlimit="10" stroke-width="2"/>
          </g>
          <g id="g12150" transform="translate(44.463 99.136)">
            <path id="path12152" d="M-7.221,0-8.937,6.264" transform="translate(8.937)" fill="none" stroke="#000" stroke-linecap="round" stroke-linejoin="round" stroke-miterlimit="10" stroke-width="2"/>
          </g>
          <g id="g12154" transform="translate(18.958 69.039)">
            <path id="path12156" d="M-85.428,0a32.182,32.182,0,0,1-7.309,13.771c-6.142,6.493-12.993,6.53-12.993,6.53a17.157,17.157,0,0,1,4.451-12.033C-95.3,1.608-85.428,0-85.428,0Z" transform="translate(105.73)" fill="none" stroke="#000" stroke-linecap="round" stroke-linejoin="round" stroke-miterlimit="10" stroke-width="2"/>
          </g>
          <g id="g12158" transform="translate(45.434 35.907)">
            <path id="path12160" d="M0,0,3.494,5.507a9.521,9.521,0,0,1,0,10.2" fill="none" stroke="#000" stroke-linecap="round" stroke-linejoin="round" stroke-miterlimit="10" stroke-width="2"/>
          </g>
          <g id="g12162" transform="translate(80.763 35.935)">
            <path id="path12164" d="M-6.3-66.072-6.31-66.1a9.521,9.521,0,0,1,0-10.2l3.476-5.478" transform="translate(7.792 81.774)" fill="none" stroke="#000" stroke-linecap="round" stroke-linejoin="round" stroke-miterlimit="10" stroke-width="2"/>
          </g>
          <g id="g12166" transform="translate(99.544 97.461)">
            <path id="path12168" d="M0,0A18.1,18.1,0,0,1,17.18,15.9l.054.441L19.094,31.7" fill="none" stroke="#000" stroke-linecap="round" stroke-linejoin="round" stroke-miterlimit="10" stroke-width="2"/>
          </g>
          <g id="g12170" transform="translate(12.533 97.443)">
            <path id="path12172" d="M0-133.481l1.86-15.362.054-.441A18.1,18.1,0,0,1,19.878-165.2" transform="translate(0 165.204)" fill="none" stroke="#000" stroke-linecap="round" stroke-linejoin="round" stroke-miterlimit="10" stroke-width="2"/>
          </g>
          <g id="g12174" transform="translate(59.706 111.425)">
            <path id="path12176" d="M-49.3-24.648a5.858,5.858,0,0,1-5.858,5.858,5.858,5.858,0,0,1-5.858-5.858,5.858,5.858,0,0,1,5.858-5.858A5.858,5.858,0,0,1-49.3-24.648Z" transform="translate(61.012 30.505)" fill="none" stroke="#000" stroke-linecap="round" stroke-linejoin="round" stroke-miterlimit="10" stroke-width="2"/>
          </g>
          <g id="g12178" transform="translate(65.564 104.865)">
            <path id="path12180" d="M0-39.662v-9.426" transform="translate(0 49.088)" fill="none" stroke="#000" stroke-linecap="round" stroke-linejoin="round" stroke-miterlimit="10" stroke-width="2"/>
          </g>
          <g id="g12182" transform="translate(85.258 97.456)">
            <path id="path12184" d="M-34.566,0c3.722,0,6.025,0,6.071.005a18.1,18.1,0,0,1,17.18,15.9l.054.441-23.41,11.409-8.11,3.953" transform="translate(42.781)" fill="none" stroke="#000" stroke-linecap="round" stroke-linejoin="round" stroke-miterlimit="10" stroke-width="2"/>
          </g>
          <g id="g12186" transform="translate(14.392 97.443)">
            <path id="path12188" d="M-98.063,0h-5.287a18.1,18.1,0,0,0-17.964,15.92l-.054.441L-97.96,27.788l8.059,3.935" transform="translate(121.368)" fill="none" stroke="#000" stroke-linecap="round" stroke-linejoin="round" stroke-miterlimit="10" stroke-width="2"/>
          </g>
          <g id="g12190" transform="translate(26.451 111.717)">
            <path id="path12192" d="M0,0,4.688,2.072" fill="none" stroke="#000" stroke-linecap="round" stroke-linejoin="round" stroke-miterlimit="10" stroke-width="2"/>
          </g>
          <g id="g12194" transform="translate(30.076 105.367)">
            <path id="path12196" d="M0,0,4.783,2.554" fill="none" stroke="#000" stroke-linecap="round" stroke-linejoin="round" stroke-miterlimit="10" stroke-width="2"/>
          </g>
          <g id="g12198" transform="translate(100.032 111.717)">
            <path id="path12200" d="M-19.724,0l-4.688,2.072" transform="translate(24.412)" fill="none" stroke="#000" stroke-linecap="round" stroke-linejoin="round" stroke-miterlimit="10" stroke-width="2"/>
          </g>
          <g id="g12202" transform="translate(96.312 105.367)">
            <path id="path12204" d="M-20.128,0l-4.784,2.554" transform="translate(24.912)" fill="none" stroke="#000" stroke-linecap="round" stroke-linejoin="round" stroke-miterlimit="10" stroke-width="2"/>
          </g>
          <g id="g12206" transform="translate(39.26 52.828)">
            <path id="path12208" d="M-221.185-.086V18.321a24.2,24.2,0,0,1-24.2,24.2h-4.163a24.2,24.2,0,0,1-24.2-24.2V-.107" transform="translate(273.751 0.107)" fill="none" stroke="#000" stroke-linecap="round" stroke-linejoin="round" stroke-miterlimit="10" stroke-width="2"/>
          </g>
          <g id="g12210" transform="translate(91.826 52.848)">
            <path id="path12212" d="M0-68.207H2.4a7.542,7.542,0,0,0,7.542-7.542v-1.126A7.542,7.542,0,0,0,2.4-84.417H0Z" transform="translate(0 84.417)" fill="none" stroke="#000" stroke-linecap="round" stroke-linejoin="round" stroke-miterlimit="10" stroke-width="2"/>
          </g>
          <g id="g12214" transform="translate(61.856 81.664)">
            <path id="path12216" d="M0,0A4.288,4.288,0,0,0,.683.891,4.293,4.293,0,0,0,3.728,2.153,4.307,4.307,0,0,0,7.459,0" fill="none" stroke="#000" stroke-linecap="round" stroke-linejoin="round" stroke-miterlimit="10" stroke-width="2"/>
          </g>
          <g id="g12218" transform="translate(78.123 75.387)">
            <path id="path12220" d="M0,0,2.164.907" fill="none" stroke="#000" stroke-linecap="round" stroke-linejoin="round" stroke-miterlimit="10" stroke-width="2"/>
          </g>
          <g id="g12222" transform="translate(50.913 75.387)">
            <path id="path12224" d="M-8.983,0l-2.135.895" transform="translate(11.117)" fill="none" stroke="#000" stroke-linecap="round" stroke-linejoin="round" stroke-miterlimit="10" stroke-width="2"/>
          </g>
          <g id="g12226" transform="translate(78.123 67.866)">
            <path id="path12228" d="M0,0,2.164.907" fill="none" stroke="#000" stroke-linecap="round" stroke-linejoin="round" stroke-miterlimit="10" stroke-width="2"/>
          </g>
          <g id="g12230" transform="translate(50.913 67.866)">
            <path id="path12232" d="M-8.983,0l-2.135.895" transform="translate(11.117)" fill="none" stroke="#000" stroke-linecap="round" stroke-linejoin="round" stroke-miterlimit="10" stroke-width="2"/>
          </g>
          <g id="g12234" transform="translate(29.319 52.829)">
            <path id="path12236" d="M-41.832-68.207h-2.4a7.542,7.542,0,0,1-7.542-7.542v-1.126a7.542,7.542,0,0,1,7.542-7.542h2.4Z" transform="translate(51.773 84.417)" fill="none" stroke="#000" stroke-linecap="round" stroke-linejoin="round" stroke-miterlimit="10" stroke-width="2"/>
          </g>
          <g id="g12238" transform="translate(61.555 60.239)">
            <path id="path12240" d="M-16.958-67.483h0a4.03,4.03,0,0,1-4.03-4.03v-7.978a4.03,4.03,0,0,1,4.03-4.03,4.03,4.03,0,0,1,4.03,4.03v7.978A4.03,4.03,0,0,1-16.958-67.483Z" transform="translate(20.988 83.521)" fill="none" stroke="#000" stroke-linecap="round" stroke-linejoin="round" stroke-miterlimit="10" stroke-width="2"/>
          </g>
          <g id="g12242" transform="translate(35.418 28.444)">
            <path id="path12244" d="M-16.168-102.606l-3.842-12.8L6.245-126.219a10.249,10.249,0,0,1,7.822.006L40.24-115.384l-3.842,12.8L10.889-105.82a5.85,5.85,0,0,0-1.463,0Z" transform="translate(20.011 126.991)" fill="none" stroke="#000" stroke-linecap="round" stroke-linejoin="round" stroke-miterlimit="10" stroke-width="2"/>
          </g>
          <g id="g12246" transform="translate(37.8 3.373)">
            <path id="path12248" d="M-92.782-111.9l-3.333-20.982h0l-9.88-5.185a3.71,3.71,0,0,0-5.213,2.024l-3.622,10" transform="translate(114.832 138.489)" fill="none" stroke="#000" stroke-linecap="round" stroke-linejoin="round" stroke-miterlimit="10" stroke-width="2"/>
          </g>
          <g id="g12250" transform="translate(21.479 13.066)">
            <path id="path12252" d="M-58.65-113.47l-12.885-10.7-1.04-12.242a3.712,3.712,0,0,1,4.516-3.935l11.791,2.664,5.886,10.859" transform="translate(72.589 140.437)" fill="none" stroke="#000" stroke-linecap="round" stroke-linejoin="round" stroke-miterlimit="10" stroke-width="2"/>
          </g>
          <g id="g12254" transform="translate(9.537 29.336)">
            <path id="path12256" d="M-108.9-45.011l-12.885-10.7-10.474,3.543a3.71,3.71,0,0,0-2.036,5.346l5.067,8.932,24.171,5.672" transform="translate(134.78 55.708)" fill="none" stroke="#000" stroke-linecap="round" stroke-linejoin="round" stroke-miterlimit="10" stroke-width="2"/>
          </g>
          <g id="g12258" transform="translate(5.613 47.157)">
            <path id="path12260" d="M-100.515-67.247l-14.412,1.808-7.846-5.315a3.71,3.71,0,0,1-.246-5.963l8.092-6.512,24.171,5.671v9.086" transform="translate(124.402 83.229)" fill="none" stroke="#000" stroke-linecap="round" stroke-linejoin="round" stroke-miterlimit="10" stroke-width="2"/>
          </g>
          <g id="g12262" transform="translate(91.825 69.058)">
            <path id="path12264" d="M0,0A32.182,32.182,0,0,0,7.309,13.771C13.451,20.265,20.3,20.3,20.3,20.3a17.157,17.157,0,0,0-4.45-12.033C9.875,1.608,0,0,0,0Z" fill="none" stroke="#000" stroke-linecap="round" stroke-linejoin="round" stroke-miterlimit="10" stroke-width="2"/>
          </g>
          <g id="g12266" transform="translate(56.517 1.92)">
            <path id="path12268" d="M-61.965-117.935v0l3.325-20.944-6.519-6.089a3.688,3.688,0,0,0-5.036,0l-6.5,6.068v0l3.333,20.982" transform="translate(76.692 145.963)" fill="none" stroke="#000" stroke-linecap="round" stroke-linejoin="round" stroke-miterlimit="10" stroke-width="2"/>
          </g>
          <g id="g12270" transform="translate(71.244 3.394)">
            <path id="path12272" d="M0-111.735v0l3.325-20.944,9.883-5.182a3.711,3.711,0,0,1,5.213,2.021l3.622,10L11.758-106.873v0" transform="translate(0 138.289)" fill="none" stroke="#000" stroke-linecap="round" stroke-linejoin="round" stroke-miterlimit="10" stroke-width="2"/>
          </g>
          <g id="g12274" transform="translate(83.002 13.087)">
            <path id="path12276" d="M-111.881-16.938a3.709,3.709,0,0,0-4.514-3.932l-11.791,2.664L-138.47.76v0" transform="translate(138.47 20.963)" fill="none" stroke="#000" stroke-linecap="round" stroke-linejoin="round" stroke-miterlimit="10" stroke-width="2"/>
          </g>
          <g id="g12278" transform="translate(95.668 29.354)">
            <path id="path12280" d="M0-45.011l12.885-10.7" transform="translate(0 55.708)" fill="none" stroke="#000" stroke-linecap="round" stroke-linejoin="round" stroke-miterlimit="10" stroke-width="2"/>
          </g>
          <g id="g12282" transform="translate(91.826 29.354)">
            <path id="path12284" d="M-16.167-45.011l12.885-10.7L7.19-52.165a3.71,3.71,0,0,1,2.039,5.346L4.159-37.885l-24.168,5.671" transform="translate(20.009 55.708)" fill="none" stroke="#000" stroke-linecap="round" stroke-linejoin="round" stroke-miterlimit="10" stroke-width="2"/>
          </g>
          <g id="g12286" transform="translate(91.826 47.178)">
            <path id="path12288" d="M0-62.084v-9.083l24.168-5.671,8.092,6.509a3.712,3.712,0,0,1-.243,5.966l-7.849,5.313L9.76-60.86" transform="translate(0 76.838)" fill="none" stroke="#000" stroke-linecap="round" stroke-linejoin="round" stroke-miterlimit="10" stroke-width="2"/>
          </g>
          <g id="g12290" transform="translate(5.613 47.157)">
            <path id="path12292" d="M-5.826-27.4l8.092-6.512,2.72,6.3a6.044,6.044,0,0,1,.051,4.672L2.266-16.12-5.58-21.436A3.71,3.71,0,0,1-5.826-27.4Z" transform="translate(7.211 33.911)" fill="none" stroke="#000" stroke-linecap="round" stroke-linejoin="round" stroke-miterlimit="10" stroke-width="2"/>
          </g>
          <g id="g12294" transform="translate(9.537 29.336)">
            <path id="path12296" d="M-10.61-14.907-.135-18.449.057-10.4A6.05,6.05,0,0,1-1.916-5.79L-7.579-.628l-5.067-8.932A3.711,3.711,0,0,1-10.61-14.907Z" transform="translate(13.131 18.449)" fill="none" stroke="#000" stroke-linecap="round" stroke-linejoin="round" stroke-miterlimit="10" stroke-width="2"/>
          </g>
          <g id="g12298" transform="translate(21.479 13.067)">
            <path id="path12300" d="M-19.061-.392-7.27,2.272l-4.1,7.3a6.027,6.027,0,0,1-2.848,2.577l-8.318,3.637-1.04-12.242A3.712,3.712,0,0,1-19.061-.392Z" transform="translate(23.591 0.485)" fill="none" stroke="#000" stroke-linecap="round" stroke-linejoin="round" stroke-miterlimit="10" stroke-width="2"/>
          </g>
          <g id="g12302" transform="translate(37.8 3.373)">
            <path id="path12304" d="M-37.176-1.794l9.88,5.185-6.2,5.366a6.046,6.046,0,0,1-3.955,1.473h-8.556l3.622-10A3.711,3.711,0,0,1-37.176-1.794Z" transform="translate(46.011 2.22)" fill="none" stroke="#000" stroke-linecap="round" stroke-linejoin="round" stroke-miterlimit="10" stroke-width="2"/>
          </g>
          <g id="g12306" transform="translate(56.518 1.92)">
            <path id="path12308" d="M-48.525-4.18l6.519,6.089-6.253,3.22A6.056,6.056,0,0,1-53.8,5.124l-6.255-3.235,6.5-6.068A3.688,3.688,0,0,1-48.525-4.18Z" transform="translate(60.057 5.173)" fill="none" stroke="#000" stroke-linecap="round" stroke-linejoin="round" stroke-miterlimit="10" stroke-width="2"/>
          </g>
          <g id="g12310" transform="translate(74.569 3.394)">
            <path id="path12312" d="M-63.518-10.3-59.9-.3l-8.266.451a6.043,6.043,0,0,1-4.485-1.647l-5.966-5.646,9.883-5.182A3.711,3.711,0,0,1-63.518-10.3Z" transform="translate(78.613 12.747)" fill="none" stroke="#000" stroke-linecap="round" stroke-linejoin="round" stroke-miterlimit="10" stroke-width="2"/>
          </g>
          <g id="g12314" transform="translate(93.286 13.087)">
            <path id="path12316" d="M-64.241-68.449l-8.087-3.238A6.052,6.052,0,0,1-75.389-74.4l-4.119-7.554,11.791-2.664A3.709,3.709,0,0,1-63.2-80.69l-.253,2.979" transform="translate(79.508 84.716)" fill="none" stroke="#000" stroke-linecap="round" stroke-linejoin="round" stroke-miterlimit="10" stroke-width="2"/>
          </g>
          <g id="g12318" transform="translate(108.197 29.354)">
            <path id="path12320" d="M-54.141-37.4l-5.069,8.935-5.664-4.805A6.051,6.051,0,0,1-67-38.142l.351-8.148,10.472,3.543A3.711,3.711,0,0,1-54.141-37.4Z" transform="translate(67.008 46.291)" fill="none" stroke="#000" stroke-linecap="round" stroke-linejoin="round" stroke-miterlimit="10" stroke-width="2"/>
          </g>
          <g id="g12322" transform="translate(112.678 47.177)">
            <path id="path12324" d="M-46.98-52.492l-7.849,5.313-2.733-5.761a6.043,6.043,0,0,1-.149-4.841l2.882-7.185,8.092,6.509A3.711,3.711,0,0,1-46.98-52.492Z" transform="translate(58.145 64.967)" fill="none" stroke="#000" stroke-linecap="round" stroke-linejoin="round" stroke-miterlimit="10" stroke-width="2"/>
          </g>
          <g id="g12326" transform="translate(65.585 36.35)">
            <path id="path12328" d="M0,0V7.338" fill="none" stroke="#000" stroke-linecap="round" stroke-linejoin="round" stroke-miterlimit="10" stroke-width="2"/>
          </g>
          <g id="g12330" transform="translate(61.916 40.019)">
            <path id="path12332" d="M-30.877,0h-7.338" transform="translate(38.215)" fill="none" stroke="#000" stroke-linecap="round" stroke-linejoin="round" stroke-miterlimit="10" stroke-width="2"/>
          </g>
        </g>
      </g>
    </g>
  </g>
</svg>
