<svg xmlns="http://www.w3.org/2000/svg" xmlns:xlink="http://www.w3.org/1999/xlink" width="1328" height="454" viewBox="0 0 1328 454">
  <defs>
    <clipPath id="clip-path">
      <rect id="Rectángulo_416602" data-name="Rectángulo 416602" width="1328" height="454" transform="translate(136 1496)" fill="#eaf2fb"/>
    </clipPath>
    <clipPath id="clip-path-2">
      <rect id="Rectángulo_416601" data-name="Rectángulo 416601" width="518.27" height="159.837" fill="none"/>
    </clipPath>
    <clipPath id="clip-path-4">
      <rect id="Rectángulo_416601-3" data-name="Rectángulo 416601" width="518.27" height="159.837" transform="translate(0 0)" fill="none"/>
    </clipPath>
    <clipPath id="clip-path-5">
      <rect id="Rectángulo_416598" data-name="Rectángulo 416598" width="587.743" height="365.998" fill="none"/>
    </clipPath>
  </defs>
  <g id="Grupo_1203711" data-name="Grupo 1203711" transform="translate(-136 -1615)">
    <g id="Grupo_1202359" data-name="Grupo 1202359" transform="translate(0 119)">
      <rect id="Rectángulo_416306" data-name="Rectángulo 416306" width="1328" height="454" transform="translate(136 1496)" fill="#eaf2fb"/>
      <g id="Enmascarar_grupo_1098807" data-name="Enmascarar grupo 1098807" clip-path="url(#clip-path)">
        <g id="Grupo_1202358" data-name="Grupo 1202358">
          <g id="Grupo_1202355" data-name="Grupo 1202355" transform="translate(903.619 1775.756) rotate(13)">
            <g id="Grupo_1202356" data-name="Grupo 1202356">
              <g id="Grupo_1202353" data-name="Grupo 1202353">
                <g id="Grupo_1202352" data-name="Grupo 1202352" clip-path="url(#clip-path-2)">
                  <path id="Trazado_1040731" data-name="Trazado 1040731" d="M491.634,100.917a118.576,118.576,0,0,1-3.951-76.735c1.642-5.676,3.85-11.442,8.141-15.5s11.171-5.914,16.254-2.9c6.9,4.092,6.9,14.416,3.326,21.6a34.145,34.145,0,0,1-29.789,18.529c-17.361.059-31.549-12.854-46.007-22.467A137.31,137.31,0,0,0,261.687,45.735c-4.147,4.59-7.978,9.455-11.989,14.164a242.494,242.494,0,0,1-64.11,53.162c-19.482,11.137-42.332,19.417-64.339,19.352" fill="none" stroke="#3c3c3b" stroke-linecap="round" stroke-linejoin="round" stroke-width="1" stroke-dasharray="6 6"/>
                  <path id="Trazado_1040732" data-name="Trazado 1040732" d="M83.19,125.225l9.818-11.352-5.019-1.926L74,124.31c-11.393-2.068-14.424.377-14.424.377,1.767,4.247,14.2,4.717,14.2,4.717l7.24,16.941,6.448.4-5.224-15.093,13.741.882,7.7,9.47,3.233.394-6.29-11.432,9-8.474-3.069-.687-10.186,6.921Z" fill="#7da4d7"/>
                </g>
              </g>
            </g>
          </g>
          <g id="Grupo_1202361" data-name="Grupo 1202361" transform="translate(1325.619 1421.756) rotate(13)">
            <g id="Grupo_1202356-2" data-name="Grupo 1202356">
              <g id="Grupo_1202353-2" data-name="Grupo 1202353">
                <g id="Grupo_1202352-2" data-name="Grupo 1202352" clip-path="url(#clip-path-2)">
                  <path id="Trazado_1040731-2" data-name="Trazado 1040731" d="M491.634,100.917a118.576,118.576,0,0,1-3.951-76.735c1.642-5.676,3.85-11.442,8.141-15.5s11.171-5.914,16.254-2.9c6.9,4.092,6.9,14.416,3.326,21.6a34.145,34.145,0,0,1-29.789,18.529c-17.361.059-31.549-12.854-46.007-22.467A137.31,137.31,0,0,0,261.687,45.735c-4.147,4.59-7.978,9.455-11.989,14.164a242.494,242.494,0,0,1-64.11,53.162c-19.482,11.137-42.332,19.417-64.339,19.352" fill="none" stroke="#3c3c3b" stroke-linecap="round" stroke-linejoin="round" stroke-width="1" stroke-dasharray="6 6"/>
                  <path id="Trazado_1040732-2" data-name="Trazado 1040732" d="M83.19,125.225l9.818-11.352-5.019-1.926L74,124.31c-11.393-2.068-14.424.377-14.424.377,1.767,4.247,14.2,4.717,14.2,4.717l7.24,16.941,6.448.4-5.224-15.093,13.741.882,7.7,9.47,3.233.394-6.29-11.432,9-8.474-3.069-.687-10.186,6.921Z" fill="#7da4d7"/>
                </g>
              </g>
            </g>
          </g>
          <g id="Grupo_1202357" data-name="Grupo 1202357" transform="translate(357 1560.74) rotate(167)">
            <g id="Grupo_1202356-3" data-name="Grupo 1202356">
              <g id="Grupo_1202353-3" data-name="Grupo 1202353">
                <g id="Grupo_1202352-3" data-name="Grupo 1202352" clip-path="url(#clip-path-4)">
                  <path id="Trazado_1040731-3" data-name="Trazado 1040731" d="M370.385,31.5a118.576,118.576,0,0,0-3.951,76.735c1.642,5.676,3.85,11.442,8.141,15.5s11.171,5.914,16.254,2.9c6.9-4.092,6.9-14.416,3.326-21.6A34.145,34.145,0,0,0,364.366,86.5c-17.361-.059-31.549,12.854-46.007,22.467a138.688,138.688,0,0,1-93.1,21.906,138.69,138.69,0,0,1-84.819-44.2c-4.147-4.59-7.978-9.455-11.989-14.164a242.494,242.494,0,0,0-64.11-53.162C44.857,8.215,22.007-.065,0,0" transform="translate(121.249 27.424)" fill="none" stroke="#3c3c3b" stroke-linecap="round" stroke-linejoin="round" stroke-width="1" stroke-dasharray="6 6"/>
                  <path id="Trazado_1040732-3" data-name="Trazado 1040732" d="M23.619,21.522l9.818,11.352L28.418,34.8,14.424,22.437C3.031,24.5,0,22.06,0,22.06c1.767-4.247,14.2-4.717,14.2-4.717L21.436.4,27.884,0,22.66,15.093,36.4,14.211l7.7-9.47,3.233-.394-6.29,11.432,9,8.474-3.069.687L36.8,18.019Z" transform="translate(59.571 13.09)" fill="#7da4d7"/>
                </g>
              </g>
            </g>
          </g>
          <g id="Grupo_1202360" data-name="Grupo 1202360" transform="translate(506.128 1522)">
            <g id="Grupo_1202341" data-name="Grupo 1202341" clip-path="url(#clip-path-5)">
              <g id="Grupo_1202340" data-name="Grupo 1202340">
                <g id="Grupo_1202339" data-name="Grupo 1202339" clip-path="url(#clip-path-5)">
                  <g id="Grupo_1202338" data-name="Grupo 1202338" opacity="0.67">
                    <g id="Grupo_1202337" data-name="Grupo 1202337">
                      <g id="Grupo_1202336" data-name="Grupo 1202336" clip-path="url(#clip-path-5)">
                        <path id="Trazado_1040720" data-name="Trazado 1040720" d="M151.336,73.936a3.268,3.268,0,0,0,2.416,4.725c.859.063,1.727-.232,2.575-.086,2.547.441,2.657,4.524.605,6.094s-4.914,1.337-7.48,1.029c.549,3.089-2.762,5.509-5.822,6.207s-6.466.612-8.985,2.482c-2.421,1.8-3.4,4.97-5.555,7.08-1.4,1.371-3.286,2.289-4.287,3.972-2.137,3.6,1,8.108,4.493,10.411s7.8,4.055,9.506,7.877c1.669,3.748.724,9.178,4.354,11.09a4.423,4.423,0,0,0,6.114-2.964c.31-1.67-.386-3.5.314-5.044,1.414-3.125,6.512-1.935,8.99-4.307,2.5-2.391.891-6.491.738-9.946a8.136,8.136,0,0,1,2-5.951,5.5,5.5,0,0,1,5.886-1.471c4.789,1.974,3.4,9.787,7.307,13.184a15.018,15.018,0,0,0,3.66,2,23.816,23.816,0,0,1,12.263,13.56c.74,2.116,1.093,4.7-.354,6.407a5.732,5.732,0,0,1-2.64,1.606c-6.076,2.008-13.742-.846-18.542,3.385a3.143,3.143,0,0,0-1.032,1.454c-.5,1.83,1.643,3.246,2.267,5.038.98,2.816-2.057,5.45-4.929,6.249s-6.17.878-8.324,2.94c-2.891,2.766-2.566,8.1-6,10.163-1.438.864-3.264.929-4.651,1.872-2.967,2.018-2.812,7.182-6.123,8.565-1.777.743-3.971.046-5.641,1.006-1.567.9-2.079,2.946-1.972,4.749s.676,3.57.633,5.376a2.985,2.985,0,0,1-.942,2.371,2.464,2.464,0,0,1-1.125.434c-4.6.7-6.555-6.125-10.831-7.972-2.368-1.022-5.1-.338-7.537.507a27.057,27.057,0,0,0-10.044,5.588c-2.788,2.671-4.668,6.511-4.228,10.347.311,2.709-1.044,6.755.229,9.167s4.068,4.2,6.715,3.538c2.016-.5,3.467-2.221,4.718-3.88s2.557-3.443,4.5-4.194,4.655.144,4.963,2.2c.238,1.586-1,3-2.284,3.962s-2.781,1.8-3.476,3.247.079,3.678,1.682,3.641a3.9,3.9,0,0,0,1.39-.417,14.346,14.346,0,0,1,8.567-.8c.978.213,2.072.664,2.345,1.627.344,1.217-.807,2.276-1.689,3.182-1.667,1.714-2.6,4.722-.881,6.381,2.707,2.607,7.624-1.448,10.831.511.864.529,1.58,1.487,2.592,1.47a3.179,3.179,0,0,0,1.564-.644,24.472,24.472,0,0,1,28,2,70.95,70.95,0,0,0,5.6,4.9c4.5,3.055,10.269,3.28,15.52,4.7s10.805,5.177,10.832,10.618c6.834,1.449,13.252,3.917,20.086,5.365,3.589.761,7.813,2.089,8.783,5.628,1.259,4.594-3.9,8.118-6.29,12.238-4.316,7.431-.178,19.116-7.262,23.981-4.4,3.019-11.35,1.6-14.581,5.839-1.544,2.028-1.684,4.75-2.343,7.212-3.389,12.652-19.544,16.984-26.773,27.9-3.359,5.074-4.547,11.226-5.99,17.137-.551,2.26-1.518,4.888-3.78,5.424-3.613.857-5.519-4.1-5.827-7.8-1.309-15.683-2.6-31.649.793-47.015.821-3.716,1.92-7.449,1.694-11.247s-2.121-7.789-5.64-9.236c-2.12-.871-4.533-.72-6.708-1.445-4.14-1.378-6.621-5.606-8.037-9.733s-2.191-8.571-4.623-12.194c-1.158-1.723-2.69-3.266-3.275-5.258-1.179-4.012,1.821-7.9,4.217-11.326s4.2-8.5,1.223-11.434a2.948,2.948,0,0,0-1.064-.71,5.107,5.107,0,0,0-2.466.057,12.851,12.851,0,0,1-13.2-7c-.694-1.466-1.169-3.157-2.473-4.121-1.851-1.37-4.5-.672-6.684-1.4-2.145-.715-3.6-2.711-5.575-3.8-2.295-1.267-5.055-1.21-7.675-1.3-6.959-.231-14.622-2.218-18.342-8.1-2.124-3.36-2.612-7.455-3.653-11.291-1.241-4.566-4.11-7.7-6.134-11.978-1.19-2.516-1.347-5.406-2.39-7.987s-3.574-5-6.289-4.385c-.455,2.115.322,4.28,1.088,6.3q4.293,11.362,8.587,22.724c-3.484-.436-5.432-4.141-6.793-7.377q-3.48-8.271-6.959-16.543a29.036,29.036,0,0,0-3.456-6.579C51,174,49.3,172.573,48.283,170.665c-2.12-3.989-.706-8.874-1.256-13.359a31.758,31.758,0,0,1-.541-4.316c.08-5.272,5.281-9.061,6.642-14.155,1.712-6.414-2.978-12.692-3.848-19.273-.4-3.034.024-6.113-.08-9.171-.438-12.855-11.526-24.476-24.346-25.517a8.464,8.464,0,0,0-4.488.583c-1.524.764-2.725,2.324-4.427,2.436-1.907.126-3.608-1.67-5.495-1.36a25.759,25.759,0,0,0-2.581,1.033c-2.477.691-4.787-1.753-5.528-4.216S1.714,78.174.6,75.855C-.771,72.993.226,67.526,3.36,68.029c.808.13,1.705.489,2.388.037.935-.617.581-2.126,1.214-3.05.837-1.222,2.8-.726,3.913.255s2,2.353,3.43,2.741a9.8,9.8,0,0,0,2.411-10.869c2.781-1.283,6.055-3.432,5.551-6.453-.281-1.679-1.687-2.892-2.806-4.174C17.722,44.524,16.5,41.8,17.2,39.246s3.943-4.359,6.155-2.911c1.393.912,2.34,2.9,3.995,2.721A3.742,3.742,0,0,0,29.426,37.7a21.1,21.1,0,0,1,8.7-5.689c2.244-.679,5.3-.426,6.108,1.775a13.857,13.857,0,0,1,.319,2.713c.56,3.7,5.039,5.2,8.758,5.622s8.13.913,9.9,4.211c.914,1.7.866,3.828,1.911,5.456,1.8,2.8,5.868,2.877,9.107,2.1s6.653-2.072,9.781-.93c6.3,2.3,7,12.748,13.579,14.076,2.717.549,5.934-.685,8.089,1.058,1.063.859,1.537,2.232,2.3,3.365s2.193,2.106,3.435,1.536a4.408,4.408,0,0,0,1.563-1.68,10.807,10.807,0,0,1,5.856-4.174,47.18,47.18,0,0,0,7.247,7.64c.844.711,1.948,1.433,2.973,1.023,1.363-.546,1.4-2.6,2.6-3.443,2.242-1.585,4.8,2.452,7.53,2.14,1.793-.205,2.79-2.217,3.008-4.008s.013-3.7.838-5.311a9.12,9.12,0,0,1,3.707-3.288,3.646,3.646,0,0,1,2.075-.722c1.648.13,2.274,2.358,1.745,3.925s-1.73,2.849-2.184,4.438,1.312,4.506,2.962,4.4" fill="#b2dff5"/>
                        <path id="Trazado_1040721" data-name="Trazado 1040721" d="M164.312,68.411c-1.084-1.507-1.884-3.522-3.678-4-.78-.209-1.616-.069-2.4-.241-2.251-.491-3.225-3.429-2.431-5.593s2.764-3.65,4.713-4.879a12.575,12.575,0,0,1,6.369-2.376c2.081-.021,4.06.869,6.124,1.139a35.851,35.851,0,0,1,4.418.445,3.714,3.714,0,0,1,2.974,2.92c-2.4,1.35-6.489-.426-7.564,2.106-.533,1.256.34,2.735,1.519,3.421a12.52,12.52,0,0,0,3.924,1.081,9.53,9.53,0,0,1,4.883,2.308,4.99,4.99,0,0,1,1.428,4.993c-.473,1.383-1.684,2.947-.757,4.077.6.735,1.8.708,2.448,1.4,1.348,1.441-.954,3.828-.245,5.669a4.188,4.188,0,0,0,2.082,1.821c2.463,1.406,4.73,3.811,4.6,6.644s-3.961,5.121-5.972,3.121c-1.3-1.288-2.045-4-3.77-3.4-1.984-.022-2.356,2.931-1.519,4.73s2.2,3.8,1.292,5.568a7.371,7.371,0,0,1-3.632.073q-.09,1.4-.181,2.793c-2.434.569-4.53-1.763-5.715-3.963s-2.4-4.806-4.825-5.432c-2.107-.546-4.772.548-6.278-1.022-1.268-1.322-.558-3.654.866-4.805s3.3-1.515,5.03-2.125a17.285,17.285,0,0,0,5.027-2.79,3.183,3.183,0,0,0,1.518-2.531c-.17-1.862-2.958-2.3-3.675-4.028-.559-1.347,2.155-3.186-.63-5.1-1.9-1.3-4.147.456-5.935-2.03" fill="#b2dff5"/>
                        <path id="Trazado_1040722" data-name="Trazado 1040722" d="M176.919,37.328c-1.713-1.664-4.465-1.206-6.854-1.173s-5.414-1.281-5.143-3.654a11.081,11.081,0,0,0,9.474-2.04,2.933,2.933,0,0,0,1.3-1.971c.073-1.326-1.406-2.443-1.126-3.741.264-1.224,1.8-1.567,3.016-1.856a12.5,12.5,0,0,0,7.874-5.9l-2.226-2.565,2.723-1.839a7.8,7.8,0,0,1-4.323-7.137c4.393-2.239,9.8.441,14.606-.652,2.9-.66,5.306-2.63,8.015-3.86s6.334-1.516,8.282.733c.738.854,1.139,1.976,1.959,2.752,1.8,1.7,5.084,1.283,6.494,3.313,1.544,2.222-.685,5.333-3.257,6.171s-5.41.417-8.016,1.144a9.541,9.541,0,0,0-6.476,6.408,7.721,7.721,0,0,1-1.05,2.8c-1.9,2.379-6.023.314-8.679,1.807-3.292,1.85-1.832,7.167-4.036,10.233a8.1,8.1,0,0,1-1.913,1.779c-1.452,1.045-4.243,3.226-6.113,3.138-2.653-.124-2.926-2.333-4.527-3.888" fill="#b2dff5"/>
                        <path id="Trazado_1040723" data-name="Trazado 1040723" d="M213.891,104.243a16.45,16.45,0,0,0,.187-2.795c-.323-2.634-3.244-3.981-4.967-6-3.035-3.552-1.529-9.906,2.778-11.719.764-.321,1.655-.573,2.063-1.294a2.693,2.693,0,0,0,.115-1.87c-.9-4.3-4.349-8.26-3.377-12.547a29.562,29.562,0,0,1,1.668-4.09c1.762-4.505.516-9.59-1.073-14.159-.435-1.252-1.02-2.63-2.251-3.123-1.251-.5-2.635.116-3.91.556-2.5.863-5.751.807-7.236-1.38-2.09-3.082,1.067-7.039,4.2-9.05s7.02-4.448,6.754-8.164a5.3,5.3,0,0,1-.038-1.823c.524-1.829,3.15-1.464,5.042-1.674,2.522-.281,4.509-2.24,6.074-4.237s3.012-4.22,5.231-5.449,5.53-.973,6.7,1.277c.614,1.178.53,2.656,1.282,3.751,1.129,1.647,3.78,1.611,5.3.318a7.22,7.22,0,0,0,2.128-5.407c.028-1.193-.052-2.52.727-3.424a4.147,4.147,0,0,1,1.839-1.059c5.412-1.911,12.734-1.726,15.394,3.36,1.037,1.984,1.22,4.513,2.921,5.968,4.3,3.678,12.289-3.566,16.059.652,1.9,2.131.776,5.646-1.243,7.67s-4.741,3.247-6.715,5.314c-7.2,7.539-1.041,21.311-7.172,29.737-2.2,3.02-6.042,5.805-5.178,9.439.293,1.231,1.121,2.271,1.494,3.48.8,2.592-.754,5.482-3.052,6.924a13.234,13.234,0,0,1-7.858,1.529c-2.332-.141-5.032-.433-6.656,1.247-1.254,1.3-1.46,3.451-2.943,4.478-1.988,1.379-4.773-.172-7.111.449-2.592.687-3.717,3.663-4.456,6.241-.782,2.731-2.3,13.926-5,14.929-3.41,1.265-7.722-5.421-7.722-8.056" fill="#b2dff5"/>
                        <path id="Trazado_1040724" data-name="Trazado 1040724" d="M293.636,182.925a5.827,5.827,0,0,1-1.584-2.6c-.247-1.152.144-2.378-.157-3.517-.5-1.87-2.725-2.808-4.648-2.594s-3.632,1.262-5.352,2.148a35.3,35.3,0,0,1-13.229,3.783,13,13,0,0,0-5.029.967c-3.259,1.7-4.025,6.093-6.739,8.573-3.689,3.37-9.958,2.4-13.65,5.763A13.164,13.164,0,0,0,240,201.343c-4.174,13-3.147,28.567,6.145,38.569,3.029,3.26,7.2,5.911,11.633,5.571,2.928-.224,5.583-1.707,8.334-2.731a27.6,27.6,0,0,1,13.9-1.384c3.826.61,8.2,2.979,8.115,6.852,1.345-1.834,4.437-1.724,5.96-.035a5.525,5.525,0,0,1,.35,6.362c-1.038,1.743-2.939,3.273-2.7,5.289a5.78,5.78,0,0,0,1.745,2.958c4.45,4.995,8.348,11.882,5.876,18.1-.939,2.36-2.727,4.348-3.409,6.794-1.3,4.657,1.675,9.3,4.194,13.424,3.184,5.217,5.9,10.986,5.978,17.1.036,2.963-.426,6.329,1.568,8.521a6.3,6.3,0,0,0,4.978,1.791c8.68-.433,12.374-12.2,20.6-15.016,1.959-.67,4.147-.811,5.851-1.987,5.163-3.561,1.528-12.323,5-17.547,3.048-4.59,10.348-4.637,13.457-9.186,3.907-5.715-1.539-13.431-.461-20.269.973-6.167,6.858-10.092,11.823-13.879s9.921-9.642,8.016-15.588c-9.3,2.7-20.142-4.588-21.151-14.219-.256-2.45-.012-5.1-1.329-7.186a14.037,14.037,0,0,0-3.354-3.148c-3.663-2.934-6.381-6.857-9.046-10.722a3.064,3.064,0,0,1-.772-2.138c.18-1.041,1.321-1.572,2.006-2.376,2.011-2.36-.783-6.18-3.867-6.5s-5.963,1.369-8.873,2.44a4.693,4.693,0,0,1-2.233.39c-1.651-.232-2.631-1.89-3.784-3.093a8.287,8.287,0,0,0-7.132-2.224c-3.625.5-4.1,3.222-6.827,4.524-5.019,2.4-13.74-4.377-16.954-7.872" fill="#b2dff5"/>
                        <path id="Trazado_1040725" data-name="Trazado 1040725" d="M389.183,200.246c-.494,3.714,7.035,4.521,6.579,8.239-.377,3.069-5.541,2.785-6.986,5.518-.511.967-.442,2.146-.874,3.151-1.3,3.022-5.593,2.557-8.867,2.888a12.405,12.405,0,0,0-7.551,3.635c-1.539,1.574-3.009,3.738-5.21,3.7-2.406-.037-3.851-2.765-4.092-5.159s.147-4.95-.928-7.1c-2.159-4.326-9.07-4.863-10.6-9.448-.563-1.682-.221-3.517-.349-5.287-.276-3.8-2.7-7.09-5.334-9.835-1.165-1.211-2.459-2.49-2.7-4.152-.539-3.683,4.274-7.33,2.306-10.488-1.249-2-4.175-1.8-6.5-1.4-3.206.557-6.719.979-9.529-.662s-3.964-6.222-1.31-8.105c1.914-1.358,4.6-.643,6.829-1.361,3.883-1.248,4.728-7.488,1.316-9.724a8.844,8.844,0,0,0-5.357-1.074,23.108,23.108,0,0,0-19.941,14.723c-.842,2.283-1.746,5.124-4.136,5.586-3.026.586-4.857-3.073-6.363-5.763a13.363,13.363,0,0,0-8.247-6.721c-3.555-.83-7.712.567-9.49,3.755-.865,1.551-1.426,3.661-3.158,4.053-1.764.4-3.727-1.371-5.269-.427a4.279,4.279,0,0,0-1.22,1.51,9.673,9.673,0,0,1-17.871-5.1,5.728,5.728,0,0,1,.918-3.371c1.827-2.549,6.233-2.564,7.419-5.468a8.753,8.753,0,0,0,.124-4,17.063,17.063,0,0,1,6.691-14.324,23.732,23.732,0,0,1,15.446-4.65c3.81.13,8.268.771,10.853-2.032,1.495-1.622,1.9-4.03,3.418-5.635,3.309-3.508,10.3-1.748,12.834-5.849,2.713-4.386-2.747-10.711.139-14.984a17.852,17.852,0,0,1,2.62-2.555,9.639,9.639,0,0,0-.817-13.958,6.038,6.038,0,0,0-5.3-1.262,7.109,7.109,0,0,0-3.557,3.067c-3.119,4.672-3.961,10.63-7.347,15.112a16.25,16.25,0,0,1-10.513,6.213,2.446,2.446,0,0,1-1.866-.27,2.213,2.213,0,0,1-.666-1.747C284.6,103.233,293,98.225,290.8,92.368c-.914-2.427-3.476-3.955-4.34-6.4-1.324-3.746,1.807-7.479,4.725-10.174,3.433-3.171,7.042-6.327,11.406-8s9.686-1.594,13.314,1.351a15.034,15.034,0,0,0,3.076,2.381c2.1.938,4.5.09,6.783-.193a13.7,13.7,0,0,1,12.276,5.108c1.71,2.208,2.7,4.9,4.347,7.152a14.781,14.781,0,0,0,7.69,5.394,5.278,5.278,0,0,0,5.047-1.862c.955-1.38,1.346-3.086,2.3-4.469a6.735,6.735,0,0,1,7.272-2.575c1.253.373,2.372,1.112,3.627,1.477A6.674,6.674,0,0,0,376.323,77c-2.506-2.066-1.818-6.772,1.174-8.035l4.755,4.719a2.816,2.816,0,0,0,1.611.991,2.624,2.624,0,0,0,1.8-.8,18.343,18.343,0,0,0,6.361-11.439c.213-1.527.317-3.257,1.487-4.261a5.446,5.446,0,0,1,2.035-.939l15.35-4.651c.467-1.871-1.447-3.371-2.467-5.007-1.42-2.279-1.1-5.31.123-7.7a23.537,23.537,0,0,1,5.173-6.121,4.8,4.8,0,0,1,2.953-1.658c3.1-.067,4.459,5.471,7.472,4.74,2.386-.578,2.007-4.038,2.837-6.348a6.784,6.784,0,0,1,5.453-3.984,19.985,19.985,0,0,1,7.024.563,3.945,3.945,0,0,1,2.4,1.095,3.946,3.946,0,0,1,.518,2.761q-.348,5.827-.7,11.655c-.169,2.839-.067,6.245,2.338,7.764,2.935,1.854,6.583-.6,9.406-2.62,5.385-3.855,13.115-6.34,18.373-2.311,1.259.964,2.389,2.3,3.961,2.513,3.283.446,5.375-4.179,8.688-4.254,2.769-.063,4.439,2.961,5.467,5.533,6.152-4.049,11.554-9.238,18.056-12.7s14.757-4.941,21.1-1.2c5.433,3.2,12.979,4.3,17.788.219,1.522-1.291,2.773-2.876,4.287-4.175,7.382-6.334,18.68-4.37,27.682-.687,2.763,1.13,5.59,2.477,7.392,4.858s2.2,6.077.122,8.218c-1.478,1.522-3.854,1.974-5.183,3.627-1.759,2.186-.95,5.428.252,7.963,1.5,3.164,3.487,6.1,4.694,9.391s1.542,7.143-.234,10.161c-2.2,3.732-6.917,5.181-9.736,8.468-3.064,3.57-3.407,8.675-3.386,13.379q.033,7.446.792,14.864c.153,1.494.261,3.2-.774,4.289-1.642,1.729-4.513.493-6.5-.829a16.722,16.722,0,0,1-4.3-3.65c-5.286-7.067,2.385-17.758-1.291-25.782a5.307,5.307,0,0,0-2.759-2.9c-2.458-.916-5.033,1.035-6.664,3.089s-3.17,4.524-5.706,5.2c-2.146.569-4.422-.342-6.628-.089-5.2.6-7.432,6.781-8.546,11.893-.4,1.813-.775,3.783.021,5.459,1.287,2.71,4.8,3.244,7.6,4.307a15.054,15.054,0,0,1,6.055,23.916c-.984,1.138-2.166,2.18-3.18,3.3-3.855,1.031-4.845,6.418-5.2,10.392s-2,8.969-5.983,9.115c-1.22.045-2.593-.389-3.568.345-.595.449-.855,1.224-1.409,1.722-1.8,1.62-4.333-.705-6.448-1.892a6.833,6.833,0,0,0-10.092,7.034c.773,4.853,6.449,7.833,7.086,12.706.15,1.151,0,2.33.2,3.475.533,3.081,3.411,5.216,4.529,8.137,1.463,3.821-.54,8.366-3.9,10.7s-7.731,2.773-11.785,2.22a11.791,11.791,0,0,0-7.442,3.127c-2.135,1.885-3.112,5.289-1.571,7.684,1.5,2.334,4.809,3.081,6.128,5.524,1.663,3.081-.794,6.81-3.568,8.946-3.356,2.583-8.775,3.992-11.413.679-1.31-1.644-1.438-3.934-2.44-5.782a6.9,6.9,0,0,0-6.212-3.525c-1.749.073-3.733.762-5.1-.337-1.09-.877-1.185-2.459-1.467-3.829a10.346,10.346,0,0,0-7.9-7.958,9.417,9.417,0,0,0-9.97,4.811c-1.246,2.511-1.352,5.7-3.445,7.569-1.164,1.038-2.77,1.472-3.937,2.507-2.326,2.063-2.177,5.639-2.5,8.731s-2.261,6.787-5.347,6.413a5.7,5.7,0,0,1-3.21-1.89,16.892,16.892,0,0,1-4.579-8.96c-.5-2.964-.2-6.027-.787-8.975s-2.416-5.981-5.353-6.618c-2.607-.565-5.587.85-7.873-.525-2.141-1.289-2.395-4.269-2.155-6.757s.659-5.253-.816-7.271c-1.954-2.674-6.079-2.421-9.111-1.09-2.1.923-4.611,2.211-6.5.908-1.224-.842-1.7-2.548-3.027-3.22-1.53-.777-3.476.3-4.255,1.829a12.716,12.716,0,0,0-1.266,4.506" fill="#b2dff5"/>
                      </g>
                    </g>
                  </g>
                </g>
              </g>
            </g>
          </g>
        </g>
      </g>
    </g>
  </g>
</svg>
